<svg xmlns="http://www.w3.org/2000/svg" xmlns:xlink="http://www.w3.org/1999/xlink" width="233.335" height="52.279" viewBox="0 0 233.335 52.279">
  <defs>
    <clipPath id="clip-path">
      <rect id="Rectangle_2581" data-name="Rectangle 2581" width="233.335" height="52.279" fill="none"/>
    </clipPath>
  </defs>
  <g id="Group_40557" data-name="Group 40557" clip-path="url(#clip-path)">
    <path id="Path_79052" data-name="Path 79052" d="M87.718,41.326h-6.05a12.287,12.287,0,0,0,.713-4.216V28.017H76.5v9.3c0,2.668-1,4.005-2.962,4.005H36.629c-2.5,0-3.967-.63-4.967-2.547a9.9,9.9,0,0,0-9.343-5.757,21.73,21.73,0,0,0-2.547.044v5.088a4.2,4.2,0,0,1,1.005-.127A3.747,3.747,0,0,1,24.656,41.7c0,3.879-4.3,6.713-8.8,6.713-5.929,0-9.221-3.751-9.221-9.343V34.608H.794v5.005c0,8.095,6.591,14.227,14.934,14.227,6.8,0,12.724-3.757,14.016-9.387,1.586,1.586,4,2.414,7.254,2.453v.006H89.5V41.326H87.718Z" transform="translate(-0.234 -8.25)" fill="#58585a"/>
    <path id="Path_79053" data-name="Path 79053" d="M237.535,28.016v9.552c0,2.5-1,3.757-2.961,3.757H230.86a12.26,12.26,0,0,0,.708-4.215V28.016h-5.841v9.552c0,2.5-1,3.757-2.961,3.757h-3.713a12.259,12.259,0,0,0,.713-4.215V28.016h-5.884v9.3a5.822,5.822,0,0,1-.248,2.166,2.681,2.681,0,0,1-2.713,1.839h-3.63v5.586h27.492a8.173,8.173,0,0,0,5.586-2.21,9.72,9.72,0,0,0,3.044-7.635v-9.05Z" transform="translate(-61.038 -8.249)" fill="#58585a"/>
    <path id="Path_79054" data-name="Path 79054" d="M173.624,26.876a17.508,17.508,0,0,1,1.439,3.26,19.642,19.642,0,0,1,.633,2.312h6.423c-1.45-6.892-6.837-13.544-10.719-15.054l6.208-8.967h-6.962l-6.7,10.679a17.238,17.238,0,0,1,9.678,7.77" transform="translate(-48.275 -2.481)" fill="#702c8a"/>
    <path id="Path_79055" data-name="Path 79055" d="M173.576,35.532h-9.444c-.022-.2-.049-.392-.076-.589a20.8,20.8,0,0,0-.955-4.122c-.082-.229-.164-.453-.256-.671a13.468,13.468,0,0,0-1.079-2.17,11.858,11.858,0,0,0-4.139-4.127,12.649,12.649,0,0,0-4.618-1.565c-.267-.044-.534-.076-.806-.1h-3.13l9.022-13.841h-6.969L139.062,27.56h10.513a.854.854,0,0,1,.12.006l-.038.054c.327.011.665.011,1.008.011a7.745,7.745,0,0,1,4.668,2.312A9.381,9.381,0,0,1,158,35.532H133.658V41.12h46.919V35.532Z" transform="translate(-39.356 -2.456)" fill="#702c8a"/>
    <path id="Path_79056" data-name="Path 79056" d="M139.92,11.187,139.3,8.1l-1.685.327.616,2.759a.668.668,0,0,1,.044.289c0,.284-.126.409-.452.409-.5,0-.905-.245-1.075-.987l-.452-2.225-1.647.371.452,2.181a1.341,1.341,0,0,1,.044.415c-.011,0-.256.986-.823.986-.207,0-.37-.164-.452-.5l-.617-2.8-1.608.327.66,3.174a1.7,1.7,0,0,0,1.853,1.483c1.4,0,1.81-.452,2.1-1.815a2.2,2.2,0,0,0,1.729,1.112c1.357,0,2.055-.742,2.055-1.685a2.766,2.766,0,0,0-.12-.742" transform="translate(-38.763 -2.385)" fill="#58585a"/>
    <path id="Path_79057" data-name="Path 79057" d="M227.912,10.229l-.05.02c-1.834.8-2.9,1.688-3.183,2.637l-.156.53.967-.352q1.949-.709,3.663-1.318c6.9-2.467,11.067-3.957,10.752-5.728l-.07-.392Z" transform="translate(-66.112 -1.657)" fill="#58585a"/>
    <path id="Path_79058" data-name="Path 79058" d="M3.964,3.648a1.055,1.055,0,0,0,.556-.382,1.031,1.031,0,0,0,.2-.655,1.006,1.006,0,0,0-.327-.79,1.312,1.312,0,0,0-.883-.289H1.968V5H2.8V3.708H3.08L3.854,5l1.015-.016Zm-.2-.725a.474.474,0,0,1-.294.092H2.8V2.29h.665a.474.474,0,0,1,.294.092.3.3,0,0,1,.12.262.334.334,0,0,1-.12.278m.2.725a1.055,1.055,0,0,0,.556-.382,1.031,1.031,0,0,0,.2-.655,1.006,1.006,0,0,0-.327-.79,1.312,1.312,0,0,0-.883-.289H1.968V5H2.8V3.708H3.08L3.854,5l1.015-.016Zm-.2-.725a.474.474,0,0,1-.294.092H2.8V2.29h.665a.474.474,0,0,1,.294.092.3.3,0,0,1,.12.262.334.334,0,0,1-.12.278m.2.725a1.055,1.055,0,0,0,.556-.382,1.031,1.031,0,0,0,.2-.655,1.006,1.006,0,0,0-.327-.79,1.312,1.312,0,0,0-.883-.289H1.968V5H2.8V3.708H3.08L3.854,5l1.015-.016Zm-.2-.725a.474.474,0,0,1-.294.092H2.8V2.29h.665a.474.474,0,0,1,.294.092.3.3,0,0,1,.12.262.334.334,0,0,1-.12.278m.2.725a1.055,1.055,0,0,0,.556-.382,1.031,1.031,0,0,0,.2-.655,1.006,1.006,0,0,0-.327-.79,1.312,1.312,0,0,0-.883-.289H1.968V5H2.8V3.708H3.08L3.854,5l1.015-.016Zm-.2-.725a.474.474,0,0,1-.294.092H2.8V2.29h.665a.474.474,0,0,1,.294.092.3.3,0,0,1,.12.262.334.334,0,0,1-.12.278m.2.725a1.055,1.055,0,0,0,.556-.382,1.031,1.031,0,0,0,.2-.655,1.006,1.006,0,0,0-.327-.79,1.312,1.312,0,0,0-.883-.289H1.968V5H2.8V3.708H3.08L3.854,5l1.015-.016Zm-.2-.725a.474.474,0,0,1-.294.092H2.8V2.29h.665a.474.474,0,0,1,.294.092.3.3,0,0,1,.12.262.334.334,0,0,1-.12.278m.2.725a1.055,1.055,0,0,0,.556-.382,1.031,1.031,0,0,0,.2-.655,1.006,1.006,0,0,0-.327-.79,1.312,1.312,0,0,0-.883-.289H1.968V5H2.8V3.708H3.08L3.854,5l1.015-.016Zm-.2-.725a.474.474,0,0,1-.294.092H2.8V2.29h.665a.474.474,0,0,1,.294.092.3.3,0,0,1,.12.262.334.334,0,0,1-.12.278m2.35-1.314A3.09,3.09,0,0,0,4.951.43,3.284,3.284,0,0,0,3.272,0a3.278,3.278,0,0,0-1.69.43A3.012,3.012,0,0,0,.42,1.609,3.329,3.329,0,0,0,0,3.293a3.394,3.394,0,0,0,.42,1.69A2.993,2.993,0,0,0,1.581,6.166a3.272,3.272,0,0,0,1.69.431,3.278,3.278,0,0,0,1.679-.431A3.069,3.069,0,0,0,6.112,4.983a3.454,3.454,0,0,0,.42-1.69,3.387,3.387,0,0,0-.42-1.684m-.96,3.6a2.5,2.5,0,0,1-1.881.747A2.449,2.449,0,0,1,1.4,5.207a2.655,2.655,0,0,1-.7-1.914,2.669,2.669,0,0,1,.7-1.919A2.445,2.445,0,0,1,3.272.632a2.5,2.5,0,0,1,1.881.742,2.655,2.655,0,0,1,.714,1.919,2.641,2.641,0,0,1-.714,1.914M4.52,3.266a1.031,1.031,0,0,0,.2-.655,1.006,1.006,0,0,0-.327-.79,1.312,1.312,0,0,0-.883-.289H1.968V5H2.8V3.708H3.08L3.854,5l1.015-.016L3.964,3.648a1.055,1.055,0,0,0,.556-.382m-.758-.344a.474.474,0,0,1-.294.092H2.8V2.29h.665a.474.474,0,0,1,.294.092.3.3,0,0,1,.12.262.334.334,0,0,1-.12.278m.2.725a1.055,1.055,0,0,0,.556-.382,1.031,1.031,0,0,0,.2-.655,1.006,1.006,0,0,0-.327-.79,1.312,1.312,0,0,0-.883-.289H1.968V5H2.8V3.708H3.08L3.854,5l1.015-.016Zm-.2-.725a.474.474,0,0,1-.294.092H2.8V2.29h.665a.474.474,0,0,1,.294.092.3.3,0,0,1,.12.262.334.334,0,0,1-.12.278m.2.725a1.055,1.055,0,0,0,.556-.382,1.031,1.031,0,0,0,.2-.655,1.006,1.006,0,0,0-.327-.79,1.312,1.312,0,0,0-.883-.289H1.968V5H2.8V3.708H3.08L3.854,5l1.015-.016Zm-.2-.725a.474.474,0,0,1-.294.092H2.8V2.29h.665a.474.474,0,0,1,.294.092.3.3,0,0,1,.12.262.334.334,0,0,1-.12.278m.2.725a1.055,1.055,0,0,0,.556-.382,1.031,1.031,0,0,0,.2-.655,1.006,1.006,0,0,0-.327-.79,1.312,1.312,0,0,0-.883-.289H1.968V5H2.8V3.708H3.08L3.854,5l1.015-.016Zm-.2-.725a.474.474,0,0,1-.294.092H2.8V2.29h.665a.474.474,0,0,1,.294.092.3.3,0,0,1,.12.262.334.334,0,0,1-.12.278m.2.725a1.055,1.055,0,0,0,.556-.382,1.031,1.031,0,0,0,.2-.655,1.006,1.006,0,0,0-.327-.79,1.312,1.312,0,0,0-.883-.289H1.968V5H2.8V3.708H3.08L3.854,5l1.015-.016Zm-.2-.725a.474.474,0,0,1-.294.092H2.8V2.29h.665a.474.474,0,0,1,.294.092.3.3,0,0,1,.12.262.334.334,0,0,1-.12.278m.2.725a1.055,1.055,0,0,0,.556-.382,1.031,1.031,0,0,0,.2-.655,1.006,1.006,0,0,0-.327-.79,1.312,1.312,0,0,0-.883-.289H1.968V5H2.8V3.708H3.08L3.854,5l1.015-.016Zm-.2-.725a.474.474,0,0,1-.294.092H2.8V2.29h.665a.474.474,0,0,1,.294.092.3.3,0,0,1,.12.262.334.334,0,0,1-.12.278m.2.725a1.055,1.055,0,0,0,.556-.382,1.031,1.031,0,0,0,.2-.655,1.006,1.006,0,0,0-.327-.79,1.312,1.312,0,0,0-.883-.289H1.968V5H2.8V3.708H3.08L3.854,5l1.015-.016Zm-.2-.725a.474.474,0,0,1-.294.092H2.8V2.29h.665a.474.474,0,0,1,.294.092.3.3,0,0,1,.12.262.334.334,0,0,1-.12.278" transform="translate(0 0)" fill="#58585a"/>
    <path id="Path_79059" data-name="Path 79059" d="M57.015,69.53h-1.64a2.437,2.437,0,0,1-2.127,1.308,2.612,2.612,0,0,1-2.5-2.7V67.37h.89v.67a1.632,1.632,0,1,0,3.2,0V64.447h.89v3.7a2.608,2.608,0,0,1-.047.489h1.332Z" transform="translate(-14.944 -18.977)" fill="#58585a"/>
    <rect id="Rectangle_2528" data-name="Rectangle 2528" width="1.742" height="0.898" transform="translate(41.734 49.655)" fill="#58585a"/>
    <rect id="Rectangle_2529" data-name="Rectangle 2529" width="1.742" height="0.898" transform="translate(43.296 49.655)" fill="#58585a"/>
    <rect id="Rectangle_2530" data-name="Rectangle 2530" width="1.742" height="0.898" transform="translate(44.856 49.655)" fill="#58585a"/>
    <rect id="Rectangle_2531" data-name="Rectangle 2531" width="1.742" height="0.898" transform="translate(46.417 49.655)" fill="#58585a"/>
    <rect id="Rectangle_2532" data-name="Rectangle 2532" width="1.742" height="0.898" transform="translate(47.978 49.655)" fill="#58585a"/>
    <rect id="Rectangle_2533" data-name="Rectangle 2533" width="1.742" height="0.898" transform="translate(49.539 49.655)" fill="#58585a"/>
    <rect id="Rectangle_2534" data-name="Rectangle 2534" width="1.742" height="0.898" transform="translate(51.1 49.655)" fill="#58585a"/>
    <rect id="Rectangle_2535" data-name="Rectangle 2535" width="1.742" height="0.898" transform="translate(52.661 49.655)" fill="#58585a"/>
    <rect id="Rectangle_2536" data-name="Rectangle 2536" width="1.742" height="0.898" transform="translate(54.222 49.655)" fill="#58585a"/>
    <rect id="Rectangle_2537" data-name="Rectangle 2537" width="1.742" height="0.898" transform="translate(55.783 49.655)" fill="#58585a"/>
    <rect id="Rectangle_2538" data-name="Rectangle 2538" width="1.742" height="0.898" transform="translate(57.344 49.655)" fill="#58585a"/>
    <rect id="Rectangle_2539" data-name="Rectangle 2539" width="1.742" height="0.898" transform="translate(58.905 49.655)" fill="#58585a"/>
    <rect id="Rectangle_2540" data-name="Rectangle 2540" width="1.742" height="0.898" transform="translate(60.466 49.655)" fill="#58585a"/>
    <rect id="Rectangle_2541" data-name="Rectangle 2541" width="1.742" height="0.898" transform="translate(62.027 49.655)" fill="#58585a"/>
    <rect id="Rectangle_2542" data-name="Rectangle 2542" width="1.742" height="0.898" transform="translate(63.587 49.655)" fill="#58585a"/>
    <rect id="Rectangle_2543" data-name="Rectangle 2543" width="1.742" height="0.898" transform="translate(65.149 49.655)" fill="#58585a"/>
    <rect id="Rectangle_2544" data-name="Rectangle 2544" width="1.742" height="0.898" transform="translate(66.709 49.655)" fill="#58585a"/>
    <rect id="Rectangle_2545" data-name="Rectangle 2545" width="1.742" height="0.898" transform="translate(68.271 49.655)" fill="#58585a"/>
    <rect id="Rectangle_2546" data-name="Rectangle 2546" width="1.742" height="0.898" transform="translate(69.831 49.655)" fill="#58585a"/>
    <path id="Path_79060" data-name="Path 79060" d="M108.693,69.49h-7.817v-.9h.883c.449,0,.67-.307.67-.93V66.29h.883v1.1A3.162,3.162,0,0,1,105.73,65.9c1.332,0,2.009.907,2.033,2.7h.93Zm-1.844-.9.016-.252c0-1.017-.473-1.655-1.222-1.655a2.925,2.925,0,0,0-2.309,1.907Zm-.8-3.4h-.867v-.875h.867Z" transform="translate(-29.703 -18.937)" fill="#58585a"/>
    <path id="Path_79061" data-name="Path 79061" d="M116.274,67.671a1.718,1.718,0,0,1-1.765,1.813H111.7v-.9h1.253a1.988,1.988,0,0,1-.229-.938,1.723,1.723,0,0,1,1.781-1.82,1.752,1.752,0,0,1,1.765,1.844m-.906,0a.937.937,0,0,0-.891-1.041c-.5,0-.842.394-.842,1.009a.947.947,0,0,0,.89,1.032.885.885,0,0,0,.843-1m-.433-2.506h-.859V64.29h.859Z" transform="translate(-32.891 -18.93)" fill="#58585a"/>
    <rect id="Rectangle_2547" data-name="Rectangle 2547" width="0.875" height="5.091" transform="translate(84.196 45.463)" fill="#58585a"/>
    <path id="Path_79062" data-name="Path 79062" d="M130.189,69.49H128.6a2.5,2.5,0,0,1-.883.945,2.273,2.273,0,0,1-1.245.363,2.314,2.314,0,0,1-1.749-.773,2.676,2.676,0,0,1-.749-1.923V65.912h.89V68a2.245,2.245,0,0,0,.394,1.324,1.475,1.475,0,0,0,2.419,0A2.244,2.244,0,0,0,128.061,68V65.912h.89V68.1a2.6,2.6,0,0,1-.047.488h1.284Zm-3.27-4.3h-.867v-.875h.867Z" transform="translate(-36.504 -18.937)" fill="#58585a"/>
    <rect id="Rectangle_2548" data-name="Rectangle 2548" width="1.742" height="0.898" transform="translate(93.403 49.655)" fill="#58585a"/>
    <rect id="Rectangle_2549" data-name="Rectangle 2549" width="1.742" height="0.898" transform="translate(94.964 49.655)" fill="#58585a"/>
    <rect id="Rectangle_2550" data-name="Rectangle 2550" width="1.742" height="0.898" transform="translate(96.525 49.655)" fill="#58585a"/>
    <rect id="Rectangle_2551" data-name="Rectangle 2551" width="1.742" height="0.898" transform="translate(98.086 49.655)" fill="#58585a"/>
    <rect id="Rectangle_2552" data-name="Rectangle 2552" width="1.742" height="0.898" transform="translate(99.647 49.655)" fill="#58585a"/>
    <rect id="Rectangle_2553" data-name="Rectangle 2553" width="1.742" height="0.898" transform="translate(101.208 49.655)" fill="#58585a"/>
    <rect id="Rectangle_2554" data-name="Rectangle 2554" width="1.742" height="0.898" transform="translate(102.769 49.655)" fill="#58585a"/>
    <rect id="Rectangle_2555" data-name="Rectangle 2555" width="1.742" height="0.898" transform="translate(104.33 49.655)" fill="#58585a"/>
    <rect id="Rectangle_2556" data-name="Rectangle 2556" width="1.742" height="0.898" transform="translate(105.891 49.655)" fill="#58585a"/>
    <rect id="Rectangle_2557" data-name="Rectangle 2557" width="1.742" height="0.898" transform="translate(107.452 49.655)" fill="#58585a"/>
    <rect id="Rectangle_2558" data-name="Rectangle 2558" width="1.742" height="0.898" transform="translate(109.013 49.655)" fill="#58585a"/>
    <rect id="Rectangle_2559" data-name="Rectangle 2559" width="1.742" height="0.898" transform="translate(110.574 49.655)" fill="#58585a"/>
    <rect id="Rectangle_2560" data-name="Rectangle 2560" width="1.742" height="0.898" transform="translate(112.135 49.655)" fill="#58585a"/>
    <rect id="Rectangle_2561" data-name="Rectangle 2561" width="1.742" height="0.898" transform="translate(113.696 49.655)" fill="#58585a"/>
    <rect id="Rectangle_2562" data-name="Rectangle 2562" width="1.742" height="0.898" transform="translate(115.257 49.655)" fill="#58585a"/>
    <rect id="Rectangle_2563" data-name="Rectangle 2563" width="1.742" height="0.898" transform="translate(116.818 49.655)" fill="#58585a"/>
    <rect id="Rectangle_2564" data-name="Rectangle 2564" width="1.742" height="0.898" transform="translate(118.379 49.655)" fill="#58585a"/>
    <rect id="Rectangle_2565" data-name="Rectangle 2565" width="1.742" height="0.898" transform="translate(119.939 49.655)" fill="#58585a"/>
    <path id="Path_79063" data-name="Path 79063" d="M178.4,69.53h-6.21v-.9h4.326a1.915,1.915,0,0,0-.425-1.253,1.672,1.672,0,0,0-1.364-.6H172.9l1.553-2.333H175.5l-1.063,1.5h.385a2.735,2.735,0,0,1,1.442.378,2.7,2.7,0,0,1,1.182,2.3h.945Z" transform="translate(-50.701 -18.977)" fill="#58585a"/>
    <path id="Path_79064" data-name="Path 79064" d="M180.689,69.259h.646c.449,0,.67-.308.67-.93V66.58h.891V68.3a1.925,1.925,0,0,1-.142.914v.047h.819c.449,0,.67-.291.67-.875v-1.8h.89V68.3a1.61,1.61,0,0,1-.181.961h.859c.449,0,.67-.291.67-.867V66.58h.89v1.7c0,1.135-.631,1.875-1.529,1.875h-5.154Z" transform="translate(-53.205 -19.605)" fill="#58585a"/>
    <path id="Path_79065" data-name="Path 79065" d="M198.649,69.2H197.7a1.474,1.474,0,0,1-1.426-1.167,1.212,1.212,0,0,1-1.009.591,1.646,1.646,0,0,1-1.631-1.852c0-1.182.622-1.915,1.631-1.915h1.947v2.5c0,.615.291.945.883.945h.559Zm-2.357-2.514V65.547h-.8c-.615,0-.993.488-.993,1.222,0,.606.338,1.127.866,1.127.576,0,.922-.536.922-1.206m-.646-2.467h-.867v-.883h.867Zm1.489,0h-.867v-.883h.867Z" transform="translate(-57.015 -18.651)" fill="#58585a"/>
    <rect id="Rectangle_2566" data-name="Rectangle 2566" width="1.742" height="0.898" transform="translate(141.415 49.655)" fill="#58585a"/>
    <rect id="Rectangle_2567" data-name="Rectangle 2567" width="1.742" height="0.898" transform="translate(142.975 49.655)" fill="#58585a"/>
    <rect id="Rectangle_2568" data-name="Rectangle 2568" width="1.742" height="0.898" transform="translate(144.537 49.655)" fill="#58585a"/>
    <rect id="Rectangle_2569" data-name="Rectangle 2569" width="1.742" height="0.898" transform="translate(146.097 49.655)" fill="#58585a"/>
    <rect id="Rectangle_2570" data-name="Rectangle 2570" width="1.742" height="0.898" transform="translate(147.659 49.655)" fill="#58585a"/>
    <rect id="Rectangle_2571" data-name="Rectangle 2571" width="1.742" height="0.898" transform="translate(149.219 49.655)" fill="#58585a"/>
    <rect id="Rectangle_2572" data-name="Rectangle 2572" width="1.742" height="0.898" transform="translate(150.78 49.655)" fill="#58585a"/>
    <rect id="Rectangle_2573" data-name="Rectangle 2573" width="1.742" height="0.898" transform="translate(152.341 49.655)" fill="#58585a"/>
    <rect id="Rectangle_2574" data-name="Rectangle 2574" width="1.742" height="0.898" transform="translate(153.902 49.655)" fill="#58585a"/>
    <rect id="Rectangle_2575" data-name="Rectangle 2575" width="1.742" height="0.898" transform="translate(155.463 49.655)" fill="#58585a"/>
    <rect id="Rectangle_2576" data-name="Rectangle 2576" width="1.742" height="0.898" transform="translate(157.024 49.655)" fill="#58585a"/>
    <rect id="Rectangle_2577" data-name="Rectangle 2577" width="1.742" height="0.898" transform="translate(158.585 49.655)" fill="#58585a"/>
    <rect id="Rectangle_2578" data-name="Rectangle 2578" width="1.742" height="0.898" transform="translate(160.146 49.655)" fill="#58585a"/>
    <rect id="Rectangle_2579" data-name="Rectangle 2579" width="1.742" height="0.898" transform="translate(161.707 49.655)" fill="#58585a"/>
    <rect id="Rectangle_2580" data-name="Rectangle 2580" width="1.742" height="0.898" transform="translate(163.268 49.655)" fill="#58585a"/>
    <path id="Path_79066" data-name="Path 79066" d="M238.94,69.237h-.875a3.03,3.03,0,0,1-1.758-.434,2.975,2.975,0,0,1-1.742.434H233.6v-.9h.922a1.864,1.864,0,0,0,.732-.086,1.873,1.873,0,0,1-.583-.725,1.966,1.966,0,0,1-.181-.82,1.458,1.458,0,0,1,.095-.543,1.823,1.823,0,0,1,1.734-1.214,1.75,1.75,0,0,1,1.836,1.726,1.924,1.924,0,0,1-.188.835,1.87,1.87,0,0,1-.576.742,1.814,1.814,0,0,0,.733.086h.82Zm-2.956-4.9h-.867v-.883h.867Zm.811,3.3a1.17,1.17,0,0,0,.521-1.009,1.005,1.005,0,1,0-2.01,0,1.19,1.19,0,0,0,.52,1.009,3.2,3.2,0,0,0,.489.292,3.3,3.3,0,0,0,.48-.292m.686-3.3h-.867v-.883h.867Z" transform="translate(-68.784 -18.684)" fill="#58585a"/>
    <path id="Path_79067" data-name="Path 79067" d="M241.537,71.884h-.867V71h.867Zm1.513-3.152c0,.954-.442,1.427-1.317,1.427h-.93v-.9h.741a.558.558,0,0,0,.56-.26,1.732,1.732,0,0,0,.063-.568V66.58h.883Zm-.025,3.152h-.867V71h.867Z" transform="translate(-70.866 -19.605)" fill="#58585a"/>
    <path id="Path_79068" data-name="Path 79068" d="M248.2,70.158h-1.41c-.133.843-.851,1.308-1.923,1.308V70.71a.974.974,0,0,0,1.1-1.119V66.58h.883v2.68H248.2Z" transform="translate(-72.103 -19.605)" fill="#58585a"/>
    <path id="Path_79069" data-name="Path 79069" d="M255.707,69.529h-6.533v-.9h1.45V64.446h.867l-.1,2.853a2.922,2.922,0,0,1,2.31-1.363c1.362,0,2.04.93,2.04,2.774,0,.26-.016.528-.039.819m-.867-.9v-.252c0-1-.449-1.655-1.214-1.655a2.931,2.931,0,0,0-2.316,1.907Z" transform="translate(-73.37 -18.976)" fill="#58585a"/>
  </g>
</svg>
