<svg id="area" xmlns="http://www.w3.org/2000/svg" width="22.875" height="20.016" viewBox="0 0 22.875 20.016">
  <path id="Path_78760" data-name="Path 78760" d="M2.13,8.689c-.439.342-.825.643-1.225.957-.3-.32-.593-.627-.9-.957.073-.064.136-.121.2-.173Q4.944,4.784,9.691,1.052c.311-.244.62-.489.932-.733a1.251,1.251,0,0,1,1.691.02q1.871,1.474,3.745,2.949c.055.044.114.083.216.158V2.355c0-.592,0-.595.618-.592.261,0,.523.011.784,0a.245.245,0,0,1,.291.244.962.962,0,0,1,.009.14v2.44c0,.046-.009.09-.018.2-.568-.445-1.1-.862-1.636-1.279l-.066.02a1.41,1.41,0,0,0,.109.421c.391.63.8,1.25,1.207,1.867a.286.286,0,0,0,.227.121.271.271,0,0,0,.152-.2c.018-.287.007-.577.007-.867.023-.009.045-.018.068-.029l4.848,3.813-.87,1-1.221-.952V19.046c0,.654-.332.967-1.014.967H3.948c-.277,0-.557,0-.834,0a.866.866,0,0,1-.989-.967q0-5.009,0-10.017C2.13,8.943,2.13,8.849,2.13,8.689Zm9.334-7.327c-.054.037-.1.061-.132.09q-3.825,3-7.65,6.009a.406.406,0,0,0-.168.362q.007,5.295,0,10.587v.25H19.4v-.246q0-5.282,0-10.563a.475.475,0,0,0-.209-.419q-3.031-2.373-6.05-4.754Q12.3,2.019,11.464,1.361Z" transform="translate(0 0)" fill="#58585a"/>
  <path id="Path_78761" data-name="Path 78761" d="M7.424,15.487c-.075.007-.12.015-.168.015H5.84V10.22H7.412v.737a2.365,2.365,0,0,1,1.743-.875,1.587,1.587,0,0,1,1.623.967c.057-.066.1-.114.141-.165a2.18,2.18,0,0,1,2.416-.7,1.4,1.4,0,0,1,.948,1.038,4.21,4.21,0,0,1,.134.981c.016,1.042,0,2.084,0,3.124,0,.046-.009.092-.016.156h-1.57c0-.079-.011-.162-.011-.246,0-.915,0-1.832-.007-2.747a2.673,2.673,0,0,0-.082-.63.725.725,0,0,0-.614-.573.881.881,0,0,0-.88.294,1.457,1.457,0,0,0-.325.994q0,1.313,0,2.628v.279H9.34c0-.083-.014-.167-.014-.25,0-.908,0-1.814-.007-2.722a2.878,2.878,0,0,0-.082-.654.71.71,0,0,0-.591-.566.893.893,0,0,0-.891.263,1.416,1.416,0,0,0-.33.992c0,.891,0,1.784,0,2.674C7.424,15.308,7.424,15.393,7.424,15.487Z" transform="translate(0.074 0.128)" fill="#58585a"/>
  <path id="Path_78762" data-name="Path 78762" d="M15.815,11.169h1.5v.595H14.983a.754.754,0,0,1,.264-.849,10.453,10.453,0,0,0,.939-.867,1.046,1.046,0,0,0,.4-.711c.011-.355-.159-.564-.52-.529a5.79,5.79,0,0,0-.907.23c-.148-.369-.057-.616.382-.72a2.852,2.852,0,0,1,1.009-.068.912.912,0,0,1,.72,1.332,3.883,3.883,0,0,1-.689.9A8.787,8.787,0,0,1,15.815,11.169Z" transform="translate(0.19 0.105)" fill="#58585a"/>
</svg>
