<svg xmlns="http://www.w3.org/2000/svg" width="23.024" height="14.39" viewBox="0 0 23.024 14.39">
  <path id="bedrooms" d="M20.1,13.849H2.922v.768c0,.583-.016.6-.7.6H.424c-.307,0-.419-.1-.419-.354,0-1.094-.013-2.19.005-3.283A4.783,4.783,0,0,1,.922,8.662a1.56,1.56,0,0,0,.333-1.041c-.01-1.956,0-3.911,0-5.865,0-.588.417-.933,1.1-.933q9.156,0,18.31,0c.685,0,1.115.361,1.118.951,0,1.2,0,2.4,0,3.6,0,.9,0,1.809.005,2.713a.325.325,0,0,0,.073.209,4.842,4.842,0,0,1,1.144,3.123c.029,1.151.008,2.3.008,3.453,0,.233-.117.332-.4.332-.7,0-1.394,0-2.089,0-.313,0-.425-.1-.425-.374C20.1,14.516,20.1,14.195,20.1,13.849ZM1.31,11.219H21.748c-.031-.17-.057-.319-.089-.469a3.156,3.156,0,0,0-.951-1.868c-.263-.233-.542-.453-.828-.667a3.351,3.351,0,0,0-1.933-.627c-1.855-.059-3.712-.136-5.567-.132-2.454.007-4.911.073-7.365.136a3.38,3.38,0,0,0-2.287.878A5.091,5.091,0,0,0,1.62,10,2.681,2.681,0,0,0,1.31,11.219ZM2.44,7.687c.253-.095.479-.187.716-.264a.224.224,0,0,0,.185-.242c0-.506-.005-1.012.044-1.516C3.451,5,3.868,4.644,4.655,4.534A3.672,3.672,0,0,1,5.147,4.5q2.38,0,4.762,0a2.178,2.178,0,0,1,1.6.5,1.926,1.926,0,0,1,1.178-.475,4.2,4.2,0,0,1,.472-.02q.989,0,1.977,0c.959,0,1.917-.009,2.876.011.914.018,1.456.385,1.62,1.063a2.384,2.384,0,0,1,.06.471c.008.385,0,.772.008,1.158a.21.21,0,0,0,.094.167c.287.13.581.246.891.374V7.551q0-2.608,0-5.218c0-.356-.083-.429-.513-.429H14.294q-5.713,0-11.4,0c-.373,0-.466.077-.466.392q0,2.608,0,5.218A1.569,1.569,0,0,0,2.44,7.687Zm-.508,6.65c0-.365,0-.717,0-1.07,0-.262.107-.354.419-.354H17.806q1.415,0,2.829,0c.326,0,.425.09.43.368,0,.183,0,.367,0,.55v.5h.776V12.106H1.229v2.229C1.463,14.338,1.682,14.338,1.932,14.338Zm16.9-7.561c-.029-.35-.036-.647-.078-.94-.039-.275-.263-.416-.576-.453a5.384,5.384,0,0,0-.625-.037q-2.063,0-4.129,0c-.247,0-.492.013-.737.035-.271.024-.508.125-.57.363A6.567,6.567,0,0,0,12,6.512h.3l4.129,0A6.519,6.519,0,0,1,18.833,6.776Zm-7.85-.295c-.018-.218-.023-.4-.055-.581-.052-.306-.216-.453-.568-.508a3.919,3.919,0,0,0-.581-.044q-2.247,0-4.494,0a3.632,3.632,0,0,0-.513.037c-.3.042-.464.163-.5.418-.044.3-.044.6-.063.926.112-.029.185-.042.253-.064A4.265,4.265,0,0,1,5.78,6.475c1.558.009,3.116,0,4.674,0C10.616,6.481,10.78,6.481,10.983,6.481Z" transform="translate(0 -0.823)" fill="#58585a"/>
</svg>
