<svg id="Group_40395" data-name="Group 40395" xmlns="http://www.w3.org/2000/svg" xmlns:xlink="http://www.w3.org/1999/xlink" width="34.797" height="37.184" viewBox="0 0 34.797 37.184">
  <defs>
    <clipPath id="clip-path">
      <rect id="Rectangle_2442" data-name="Rectangle 2442" width="34.797" height="37.184" fill="#000"/>
    </clipPath>
  </defs>
  <g id="Group_40395-2" data-name="Group 40395" clip-path="url(#clip-path)">
    <path id="Path_78771" data-name="Path 78771" d="M13.3,61.074c-2.46,2.469-4.892,4.9-7.316,7.347A3.771,3.771,0,0,1,3.7,69.62,3.433,3.433,0,0,1,.057,66.792,8.987,8.987,0,0,1,0,65.865Q0,54.29,0,42.715a6.493,6.493,0,0,1,1.627-4.58A6.057,6.057,0,0,1,6.04,36.018C8.255,35.947,10.474,36,12.733,36v3.474h-.559c-1.989.009-3.981-.035-5.967.044a2.783,2.783,0,0,0-2.715,2.893c-.019,1.4,0,2.806,0,4.209q0,9.348,0,18.7v.451l9.757-9.684,9.907,9.911V53.431h3.5c.008.164.021.322.021.48q0,6.02,0,12.04a3.378,3.378,0,0,1-2.588,3.569,2.974,2.974,0,0,1-2.92-.662c-1.5-1.407-2.937-2.874-4.4-4.321-1.146-1.137-2.286-2.28-3.469-3.461" transform="translate(0 -32.461)" fill="#000"/>
    <path id="Path_78772" data-name="Path 78772" d="M175.006,17.61c-.25-.3-.473-.6-.737-.865q-3.269-3.27-6.554-6.526a5.845,5.845,0,0,1-1.91-4.54,5.6,5.6,0,0,1,3.07-4.947,5.557,5.557,0,0,1,5.806.18.677.677,0,0,0,.822.019,5.6,5.6,0,0,1,6.15.043,5.575,5.575,0,0,1,2.709,5.339,5.178,5.178,0,0,1-1.475,3.431c-2.565,2.6-5.169,5.165-7.881,7.866m.027-4.941c1.8-1.775,3.537-3.492,5.275-5.21a1.372,1.372,0,0,0,.123-.152,2.362,2.362,0,0,0-.879-3.518,2.317,2.317,0,0,0-2.772.52c-.558.539-1.092,1.1-1.659,1.675-.316-.3-.571-.55-.832-.794a16.387,16.387,0,0,0-1.332-1.218,2.3,2.3,0,0,0-3.012.346,2.225,2.225,0,0,0-.128,2.985c1.7,1.819,3.47,3.578,5.216,5.367" transform="translate(-149.576 0)" fill="#000"/>
  </g>
</svg>
