<svg id="Buyhome_HP" xmlns="http://www.w3.org/2000/svg" width="79.673" height="61.502" viewBox="0 0 79.673 61.502">
  <path id="Path_1291" data-name="Path 1291" d="M40.394,54.382H9.456v-.913q0-14.5-.015-29a1.256,1.256,0,0,1,.7-1.249Q22.839,15.591,35.5,7.923A.922.922,0,0,1,36.616,7.9Q49.352,15.613,62.1,23.309a1.261,1.261,0,0,1,.571.863c.046,2.563.027,5.126.027,7.681-8.272-4.675-15.754-3.92-21.971,3.5A15.715,15.715,0,0,0,40.394,54.382Z" transform="translate(3.755 3.073)" fill="#fff"/>
  <path id="Path_1292" data-name="Path 1292" d="M79.673,25.38H78.4c-2.826,0-5.657.019-8.483-.023a3.254,3.254,0,0,1-1.542-.439q-13.967-8.256-27.9-16.565a1.117,1.117,0,0,0-1.335.023Q25.175,16.706,11.179,24.987a2.888,2.888,0,0,1-1.4.374c-3.183.031-6.366.015-9.783.015.4-.285.621-.459.855-.613Q11.267,18.109,21.7,11.478a1.6,1.6,0,0,0,.844-1.592c-.042-3.01-.015-6.02-.015-9.027V0h7.965V5.816c.414-.243.7-.4.97-.574,2.581-1.626,5.166-3.249,7.731-4.9A.979.979,0,0,1,40.44.324Q59.66,12.6,78.9,24.833C79.1,24.96,79.286,25.1,79.673,25.38Z" fill="#fff"/>
  <path id="Path_1293" data-name="Path 1293" d="M31.352,38.17a13.31,13.31,0,1,1,13.2,13.443A13.384,13.384,0,0,1,31.352,38.17ZM45.983,46.2c.564-.224,1.1-.381,1.58-.628a4.387,4.387,0,0,0,1.181-6.992A5.887,5.887,0,0,0,44.8,36.872a4.6,4.6,0,0,1-2.071-.678,1.549,1.549,0,0,1-.054-2.617,3.186,3.186,0,0,1,4.234.22c.157.166.368.385.564.4.817.046,1.637.019,2.685.019a7.317,7.317,0,0,0-1.07-2.116,26.251,26.251,0,0,0-3.114-2.143V27.579H43.337v2.69c-.518.189-.993.327-1.442.536A4.384,4.384,0,0,0,40.4,37.681a5.751,5.751,0,0,0,4.107,1.9,4.554,4.554,0,0,1,1.948.563,1.624,1.624,0,0,1,.008,2.879,3.208,3.208,0,0,1-4.1-.416,1.032,1.032,0,0,0-.583-.355c-.79-.042-1.588-.016-2.424-.016.337,2.394,1.894,3.415,4.019,3.912v2.729h2.608C45.983,47.956,45.983,47.074,45.983,46.2Z" transform="translate(12.471 9.888)" fill="#fff"/>
</svg>
