<svg xmlns="http://www.w3.org/2000/svg" width="23.299" height="21.984" viewBox="0 0 23.299 21.984">
  <path id="compare" d="M5.637,3.485H0V9.429H5.637V11.7c.04.986.736,1.338,1.6,1.036a.463.463,0,0,0,.133-.073c2.175-1.776,3.673-3.551,5.848-5.327l.03-.026a1.143,1.143,0,0,0-.176-1.868L7.738.516a2.487,2.487,0,0,0-.789-.46A.9.9,0,0,0,5.766.592a2.045,2.045,0,0,0-.129.775C5.637,2.072,5.628,2.78,5.637,3.485Zm12.025,9.143H23.3v5.95H17.662v2.265c-.04.986-.736,1.34-1.6,1.036a.419.419,0,0,1-.133-.073c-2.175-1.776-3.673-3.551-5.848-5.327l-.036-.028a1.141,1.141,0,0,1,.176-1.866l5.336-4.917a2.44,2.44,0,0,1,.789-.458.9.9,0,0,1,1.183.535,2.045,2.045,0,0,1,.129.777c0,.7.011,1.413,0,2.115Z" transform="translate(0 -0.001)" fill="#702c8a"/>
</svg>
