<svg xmlns="http://www.w3.org/2000/svg" width="29.067" height="29.067" viewBox="0 0 29.067 29.067">
  <g id="Group_40436" data-name="Group 40436" transform="translate(-1047.353 -573.034)">
    <path id="Path_1286" data-name="Path 1286" d="M78.415,14.533a14.533,14.533,0,1,0-16.8,14.357V18.735h-3.69v-4.2h3.69v-3.2c0-3.643,2.17-5.655,5.489-5.655a22.374,22.374,0,0,1,3.253.283V9.538H68.521a2.1,2.1,0,0,0-2.368,2.27v2.726h4.031l-.645,4.2H66.152V28.89A14.537,14.537,0,0,0,78.415,14.533" transform="translate(998.005 573.034)" fill="#337fff"/>
    <path id="Path_1287" data-name="Path 1287" d="M71.4,19.968l.644-4.2h-4.03V13.041a2.1,2.1,0,0,1,2.368-2.27h1.833V7.194a22.389,22.389,0,0,0-3.253-.283c-3.32,0-5.489,2.012-5.489,5.655v3.2h-3.69v4.2h3.69V30.124a14.684,14.684,0,0,0,4.541,0V19.968Z" transform="translate(996.143 571.801)" fill="#fff"/>
  </g>
</svg>
