<svg xmlns="http://www.w3.org/2000/svg" width="36" height="33.232" viewBox="0 0 36 33.232">
  <path id="heart-empty" d="M24.975,1.385a12.169,12.169,0,0,0-4.391.879l-.066.028-.066.034a11.019,11.019,0,0,0-2.51,1.753,11.231,11.231,0,0,0-14.8.218l-.044.04-.04.042C-.785,8.392-.695,14.571,1.608,19.454l.02.038.02.04c2.712,5.022,7.776,9.29,12.392,12.8l.012.01.01.008c.3.218.807.668,1.4,1.111a5.212,5.212,0,0,0,2.229,1.115l.218.042.22-.018a3.944,3.944,0,0,0,2.095-.889c.672-.423,1.415-.96,2.179-1.547,1.506-1.158,3.064-2.492,4.091-3.444l.048-.042.006-.006A37.7,37.7,0,0,0,32.663,22.2l0,0,.01-.014a15.754,15.754,0,0,0,2.61-14.245l-.03-.092-.04-.086A11.041,11.041,0,0,0,24.975,1.385Zm.052,3.166a7.682,7.682,0,0,1,7.242,4.475,12.529,12.529,0,0,1-2.175,11.261l-.006.008-.006.008a34.742,34.742,0,0,1-5.665,5.976l-.026.024-.026.024c-.924.86-2.488,2.2-3.916,3.3-.714.549-1.4,1.04-1.931,1.375a3.717,3.717,0,0,1-.546.278,4.987,4.987,0,0,1-.588-.378c-.435-.327-.9-.744-1.4-1.117l-.024-.018c-4.479-3.407-9.2-7.543-11.465-11.713C2.65,14.117,2.731,9.408,5.333,6.641a7.994,7.994,0,0,1,11.415.766l1.277,1.571,1.235-1.6a7.64,7.64,0,0,1,2.588-2.161,9.332,9.332,0,0,1,3.182-.662Z" transform="translate(0 -1.384)" fill="#fff"/>
</svg>
