<svg xmlns="http://www.w3.org/2000/svg" xmlns:xlink="http://www.w3.org/1999/xlink" width="29.066" height="29.067" viewBox="0 0 29.066 29.067">
  <defs>
    <clipPath id="clip-path">
      <path id="Path_1282" data-name="Path 1282" d="M113.23,0a14.533,14.533,0,1,0,14.533,14.534A14.534,14.534,0,0,0,113.23,0Z" transform="translate(-98.697)" fill="none"/>
    </clipPath>
  </defs>
  <g id="Group_40437" data-name="Group 40437" transform="translate(-1071.894 -535.034)">
    <g id="Group_261" data-name="Group 261" transform="translate(1071.894 535.034)" clip-path="url(#clip-path)">
      <path id="Path_963" data-name="Path 963" d="M102.236,0,98.7,4.19V0Z" transform="translate(-98.697 0)" fill="#fbe18a"/>
      <path id="Path_964" data-name="Path 964" d="M102.386,0,98.7,4.367V4.19L102.235,0Z" transform="translate(-98.697 0)" fill="#fbe18a"/>
      <path id="Path_965" data-name="Path 965" d="M102.536,0,98.7,4.545V4.367L102.386,0Z" transform="translate(-98.697 0)" fill="#fbe089"/>
      <path id="Path_966" data-name="Path 966" d="M102.686,0,98.7,4.723V4.545L102.536,0Z" transform="translate(-98.697 0)" fill="#fbe088"/>
      <path id="Path_967" data-name="Path 967" d="M102.837,0,98.7,4.9V4.723L102.686,0Z" transform="translate(-98.697 0)" fill="#fbdf87"/>
      <path id="Path_968" data-name="Path 968" d="M102.987,0,98.7,5.079V4.9l4.14-4.9Z" transform="translate(-98.697 0)" fill="#fbdf86"/>
      <path id="Path_969" data-name="Path 969" d="M103.137,0,98.7,5.257V5.079L102.987,0Z" transform="translate(-98.697 0)" fill="#fbde85"/>
      <path id="Path_970" data-name="Path 970" d="M103.287,0,98.7,5.435V5.257L103.137,0Z" transform="translate(-98.697 0)" fill="#fbde84"/>
      <path id="Path_971" data-name="Path 971" d="M103.438,0,98.7,5.613V5.435L103.287,0Z" transform="translate(-98.697 0)" fill="#fbdd83"/>
      <path id="Path_972" data-name="Path 972" d="M103.588,0,98.7,5.791V5.613L103.438,0Z" transform="translate(-98.697 0)" fill="#fbdd82"/>
      <path id="Path_973" data-name="Path 973" d="M103.738,0,98.7,5.969V5.791L103.588,0Z" transform="translate(-98.697 0)" fill="#fbdc81"/>
      <path id="Path_974" data-name="Path 974" d="M103.889,0,98.7,6.147V5.969L103.738,0Z" transform="translate(-98.697 0)" fill="#fbdb80"/>
      <path id="Path_975" data-name="Path 975" d="M104.039,0,98.7,6.325V6.147L103.889,0Z" transform="translate(-98.697 0)" fill="#fbdb7f"/>
      <path id="Path_976" data-name="Path 976" d="M104.189,0,98.7,6.5V6.325L104.039,0Z" transform="translate(-98.697 0)" fill="#fbda7e"/>
      <path id="Path_977" data-name="Path 977" d="M104.339,0,98.7,6.681V6.5L104.189,0Z" transform="translate(-98.697 0)" fill="#fbda7d"/>
      <path id="Path_978" data-name="Path 978" d="M104.49,0,98.7,6.858V6.681L104.339,0Z" transform="translate(-98.697 0)" fill="#fbd97c"/>
      <path id="Path_979" data-name="Path 979" d="M104.64,0,98.7,7.036V6.858L104.49,0Z" transform="translate(-98.697 0)" fill="#fbd97b"/>
      <path id="Path_980" data-name="Path 980" d="M104.79,0,98.7,7.215V7.036L104.64,0Z" transform="translate(-98.697 0)" fill="#fbd87a"/>
      <path id="Path_981" data-name="Path 981" d="M104.941,0,98.7,7.392V7.215L104.79,0Z" transform="translate(-98.697 0)" fill="#fbd879"/>
      <path id="Path_982" data-name="Path 982" d="M105.091,0,98.7,7.57V7.392L104.94,0Z" transform="translate(-98.697 0)" fill="#fbd778"/>
      <path id="Path_983" data-name="Path 983" d="M105.241,0,98.7,7.748V7.57L105.091,0Z" transform="translate(-98.697 0)" fill="#fbd677"/>
      <path id="Path_984" data-name="Path 984" d="M105.391,0,98.7,7.926V7.748L105.241,0Z" transform="translate(-98.697 0)" fill="#fbd676"/>
      <path id="Path_985" data-name="Path 985" d="M105.542,0,98.7,8.1V7.926L105.391,0Z" transform="translate(-98.697 0)" fill="#fbd575"/>
      <path id="Path_986" data-name="Path 986" d="M105.692,0,98.7,8.282V8.1L105.542,0Z" transform="translate(-98.697 0)" fill="#fbd574"/>
      <path id="Path_987" data-name="Path 987" d="M105.842,0,98.7,8.46V8.282L105.692,0Z" transform="translate(-98.697 0)" fill="#fbd473"/>
      <path id="Path_988" data-name="Path 988" d="M105.993,0,98.7,8.637V8.46L105.842,0Z" transform="translate(-98.697 0)" fill="#fbd472"/>
      <path id="Path_989" data-name="Path 989" d="M106.143,0,98.7,8.816V8.637L105.992,0Z" transform="translate(-98.697 0)" fill="#fbd371"/>
      <path id="Path_990" data-name="Path 990" d="M106.293,0,98.7,8.993V8.816L106.143,0Z" transform="translate(-98.697 0)" fill="#fbd270"/>
      <path id="Path_991" data-name="Path 991" d="M106.443,0,98.7,9.171V8.993L106.293,0Z" transform="translate(-98.697 0)" fill="#fbd26f"/>
      <path id="Path_992" data-name="Path 992" d="M106.594,0,98.7,9.35V9.171L106.443,0Z" transform="translate(-98.697 0)" fill="#fbd16e"/>
      <path id="Path_993" data-name="Path 993" d="M106.744,0,98.7,9.527V9.35l7.9-9.35Z" transform="translate(-98.697 0)" fill="#fbd16d"/>
      <path id="Path_994" data-name="Path 994" d="M106.894,0,98.7,9.705V9.527L106.744,0Z" transform="translate(-98.697 0)" fill="#fbd06c"/>
      <path id="Path_995" data-name="Path 995" d="M107.044,0,98.7,9.883V9.705L106.894,0Z" transform="translate(-98.697 0)" fill="#fbd06b"/>
      <path id="Path_996" data-name="Path 996" d="M107.195,0,98.7,10.061V9.883L107.044,0Z" transform="translate(-98.697 0)" fill="#fbcf6a"/>
      <path id="Path_997" data-name="Path 997" d="M107.345,0,98.7,10.239v-.178L107.195,0Z" transform="translate(-98.697 0)" fill="#fbcf69"/>
      <path id="Path_998" data-name="Path 998" d="M107.5,0,98.7,10.417v-.177L107.345,0Z" transform="translate(-98.697 0)" fill="#fcce68"/>
      <path id="Path_999" data-name="Path 999" d="M107.645,0,98.7,10.6v-.178L107.5,0Z" transform="translate(-98.697 0)" fill="#fccd66"/>
      <path id="Path_1000" data-name="Path 1000" d="M107.8,0,98.7,10.773V10.6L107.646,0Z" transform="translate(-98.697 0)" fill="#fccd65"/>
      <path id="Path_1001" data-name="Path 1001" d="M107.946,0,98.7,10.951v-.178L107.8,0Z" transform="translate(-98.697 0)" fill="#fccc64"/>
      <path id="Path_1002" data-name="Path 1002" d="M108.1,0,98.7,11.128v-.177L107.946,0Z" transform="translate(-98.697 0)" fill="#fccc63"/>
      <path id="Path_1003" data-name="Path 1003" d="M108.247,0,98.7,11.307v-.178L108.1,0Z" transform="translate(-98.697 0)" fill="#fccb62"/>
      <path id="Path_1004" data-name="Path 1004" d="M108.4,0,98.7,11.485v-.178L108.247,0Z" transform="translate(-98.697 0)" fill="#fccb61"/>
      <path id="Path_1005" data-name="Path 1005" d="M108.547,0,98.7,11.662v-.177L108.4,0Z" transform="translate(-98.697 0)" fill="#fcca60"/>
      <path id="Path_1006" data-name="Path 1006" d="M108.7,0l-10,11.841v-.178L108.547,0Z" transform="translate(-98.697 0)" fill="#fcca5f"/>
      <path id="Path_1007" data-name="Path 1007" d="M108.848,0,98.7,12.018v-.177L108.7,0Z" transform="translate(-98.697 0)" fill="#fcc95e"/>
      <path id="Path_1008" data-name="Path 1008" d="M109,0,98.7,12.2v-.178L108.848,0Z" transform="translate(-98.697 0)" fill="#fcc85d"/>
      <path id="Path_1009" data-name="Path 1009" d="M109.148,0,98.7,12.375V12.2L109,0Z" transform="translate(-98.697 0)" fill="#fcc85c"/>
      <path id="Path_1010" data-name="Path 1010" d="M109.3,0,98.7,12.552v-.177L109.148,0Z" transform="translate(-98.697 0)" fill="#fcc75b"/>
      <path id="Path_1011" data-name="Path 1011" d="M109.449,0,98.7,12.73v-.178L109.3,0Z" transform="translate(-98.697 0)" fill="#fcc75a"/>
      <path id="Path_1012" data-name="Path 1012" d="M109.6,0,98.7,12.908V12.73L109.449,0Z" transform="translate(-98.697 0)" fill="#fcc659"/>
      <path id="Path_1013" data-name="Path 1013" d="M109.749,0,98.7,13.086v-.178L109.6,0Z" transform="translate(-98.697 0)" fill="#fcc658"/>
      <path id="Path_1014" data-name="Path 1014" d="M109.9,0,98.7,13.263v-.177L109.749,0Z" transform="translate(-98.697 0)" fill="#fcc557"/>
      <path id="Path_1015" data-name="Path 1015" d="M110.05,0,98.7,13.442v-.178L109.9,0Z" transform="translate(-98.697 0)" fill="#fcc556"/>
      <path id="Path_1016" data-name="Path 1016" d="M110.2,0,98.7,13.62v-.178L110.05,0Z" transform="translate(-98.697 0)" fill="#fcc455"/>
      <path id="Path_1017" data-name="Path 1017" d="M110.351,0,98.7,13.8V13.62L110.2,0Z" transform="translate(-98.697 0)" fill="#fcc354"/>
      <path id="Path_1018" data-name="Path 1018" d="M110.5,0,98.7,13.976V13.8L110.35,0Z" transform="translate(-98.697 0)" fill="#fcc353"/>
      <path id="Path_1019" data-name="Path 1019" d="M110.651,0,98.7,14.153v-.177L110.5,0Z" transform="translate(-98.697 0)" fill="#fcc252"/>
      <path id="Path_1020" data-name="Path 1020" d="M110.8,0,98.7,14.331v-.178L110.651,0Z" transform="translate(-98.697 0)" fill="#fcc251"/>
      <path id="Path_1021" data-name="Path 1021" d="M110.952,0,98.7,14.51v-.178L110.8,0Z" transform="translate(-98.697 0)" fill="#fcc150"/>
      <path id="Path_1022" data-name="Path 1022" d="M111.1,0,98.7,14.687V14.51L110.952,0Z" transform="translate(-98.697 0)" fill="#fcc14f"/>
      <path id="Path_1023" data-name="Path 1023" d="M111.252,0,98.7,14.865v-.178L111.1,0Z" transform="translate(-98.697 0)" fill="#fcc04e"/>
      <path id="Path_1024" data-name="Path 1024" d="M111.4,0,98.7,15.043v-.177L111.252,0Z" transform="translate(-98.697 0)" fill="#fcbf4d"/>
      <path id="Path_1025" data-name="Path 1025" d="M111.553,0,98.7,15.221v-.178L111.4,0Z" transform="translate(-98.697 0)" fill="#fcbf4c"/>
      <path id="Path_1026" data-name="Path 1026" d="M111.7,0,98.7,15.4v-.177L111.553,0Z" transform="translate(-98.697 0)" fill="#fcbe4b"/>
      <path id="Path_1027" data-name="Path 1027" d="M111.853,0,98.7,15.577V15.4L111.7,0Z" transform="translate(-98.697 0)" fill="#fcbe4a"/>
      <path id="Path_1028" data-name="Path 1028" d="M112,0,98.7,15.755v-.178L111.853,0Z" transform="translate(-98.697 0)" fill="#fcbd49"/>
      <path id="Path_1029" data-name="Path 1029" d="M112.154,0,98.7,15.933v-.177L112,0Z" transform="translate(-98.697 0)" fill="#fcbd48"/>
      <path id="Path_1030" data-name="Path 1030" d="M112.3,0,98.7,16.111v-.178L112.154,0Z" transform="translate(-98.697 0)" fill="#fcbc47"/>
      <path id="Path_1031" data-name="Path 1031" d="M112.454,0,98.7,16.288v-.177L112.3,0Z" transform="translate(-98.697 0)" fill="#fcbc46"/>
      <path id="Path_1032" data-name="Path 1032" d="M112.6,0,98.7,16.467v-.178L112.454,0Z" transform="translate(-98.697 0)" fill="#fcbb45"/>
      <path id="Path_1033" data-name="Path 1033" d="M112.684,0,98.7,16.56v-.094L112.6,0Z" transform="translate(-98.697 0)" fill="#fcbb45"/>
      <path id="Path_1034" data-name="Path 1034" d="M112.763,0,98.7,16.654V16.56L112.684,0Z" transform="translate(-98.697 0)" fill="#fcba45"/>
      <path id="Path_1035" data-name="Path 1035" d="M112.842,0,98.7,16.748v-.094L112.764,0Z" transform="translate(-98.697 0)" fill="#fcb946"/>
      <path id="Path_1036" data-name="Path 1036" d="M112.922,0,98.7,16.842v-.094L112.843,0Z" transform="translate(-98.697 0)" fill="#fcb846"/>
      <path id="Path_1037" data-name="Path 1037" d="M113,0,98.7,16.936v-.094L112.922,0Z" transform="translate(-98.697 0)" fill="#fcb747"/>
      <path id="Path_1038" data-name="Path 1038" d="M113.08,0,98.7,17.029v-.094L113,0Z" transform="translate(-98.697 0)" fill="#fcb647"/>
      <path id="Path_1039" data-name="Path 1039" d="M113.159,0,98.7,17.123v-.094L113.081,0Z" transform="translate(-98.697 0)" fill="#fcb548"/>
      <path id="Path_1040" data-name="Path 1040" d="M113.239,0,98.7,17.217v-.094L113.16,0Z" transform="translate(-98.697 0)" fill="#fcb448"/>
      <path id="Path_1041" data-name="Path 1041" d="M113.318,0,98.7,17.311v-.094L113.239,0Z" transform="translate(-98.697 0)" fill="#fcb349"/>
      <path id="Path_1042" data-name="Path 1042" d="M113.4,0,98.7,17.4v-.094L113.318,0Z" transform="translate(-98.697 0)" fill="#fcb249"/>
      <path id="Path_1043" data-name="Path 1043" d="M113.476,0,98.7,17.5V17.4L113.4,0Z" transform="translate(-98.697 0)" fill="#fcb14a"/>
      <path id="Path_1044" data-name="Path 1044" d="M113.555,0,98.7,17.592V17.5L113.477,0Z" transform="translate(-98.697 0)" fill="#fbb04a"/>
      <path id="Path_1045" data-name="Path 1045" d="M113.635,0,98.7,17.686v-.094L113.556,0Z" transform="translate(-98.697 0)" fill="#fbaf4a"/>
      <path id="Path_1046" data-name="Path 1046" d="M113.714,0,98.7,17.78v-.094L113.635,0Z" transform="translate(-98.697 0)" fill="#fbae4b"/>
      <path id="Path_1047" data-name="Path 1047" d="M113.793,0,98.7,17.874V17.78L113.714,0Z" transform="translate(-98.697 0)" fill="#fbad4b"/>
      <path id="Path_1048" data-name="Path 1048" d="M113.873,0,98.7,17.967v-.094L113.794,0Z" transform="translate(-98.697 0)" fill="#fbac4c"/>
      <path id="Path_1049" data-name="Path 1049" d="M113.952,0,98.7,18.061v-.094L113.873,0Z" transform="translate(-98.697 0)" fill="#fbab4c"/>
      <path id="Path_1050" data-name="Path 1050" d="M114.031,0,98.7,18.156v-.094L113.952,0Z" transform="translate(-98.697 0)" fill="#fbaa4d"/>
      <path id="Path_1051" data-name="Path 1051" d="M114.11,0,98.7,18.249v-.094L114.031,0Z" transform="translate(-98.697 0)" fill="#fba94d"/>
      <path id="Path_1052" data-name="Path 1052" d="M114.189,0,98.7,18.343v-.094L114.111,0Z" transform="translate(-98.697 0)" fill="#fba84e"/>
      <path id="Path_1053" data-name="Path 1053" d="M114.269,0,98.7,18.437v-.094L114.19,0Z" transform="translate(-98.697 0)" fill="#fba74e"/>
      <path id="Path_1054" data-name="Path 1054" d="M114.348,0,98.7,18.53v-.094L114.269,0Z" transform="translate(-98.697 0)" fill="#fba64e"/>
      <path id="Path_1055" data-name="Path 1055" d="M114.427,0,98.7,18.625V18.53L114.348,0Z" transform="translate(-98.697 0)" fill="#fba54f"/>
      <path id="Path_1056" data-name="Path 1056" d="M114.506,0,98.7,18.718v-.094L114.428,0Z" transform="translate(-98.697 0)" fill="#fba44f"/>
      <path id="Path_1057" data-name="Path 1057" d="M114.586,0,98.7,18.812v-.094L114.507,0Z" transform="translate(-98.697 0)" fill="#fba350"/>
      <path id="Path_1058" data-name="Path 1058" d="M114.665,0,98.7,18.906v-.094L114.586,0Z" transform="translate(-98.697 0)" fill="#fba250"/>
      <path id="Path_1059" data-name="Path 1059" d="M114.744,0,98.7,19v-.094L114.665,0Z" transform="translate(-98.697 0)" fill="#fba151"/>
      <path id="Path_1060" data-name="Path 1060" d="M114.823,0,98.7,19.094V19L114.745,0Z" transform="translate(-98.697 0)" fill="#fba051"/>
      <path id="Path_1061" data-name="Path 1061" d="M114.9,0,98.7,19.187v-.094L114.824,0Z" transform="translate(-98.697 0)" fill="#fb9f52"/>
      <path id="Path_1062" data-name="Path 1062" d="M114.982,0,98.7,19.281v-.094L114.9,0Z" transform="translate(-98.697 0)" fill="#fb9e52"/>
      <path id="Path_1063" data-name="Path 1063" d="M115.061,0,98.7,19.375v-.094L114.982,0Z" transform="translate(-98.697 0)" fill="#fb9d53"/>
      <path id="Path_1064" data-name="Path 1064" d="M115.14,0,98.7,19.469v-.094L115.061,0Z" transform="translate(-98.697 0)" fill="#fb9c53"/>
      <path id="Path_1065" data-name="Path 1065" d="M115.22,0,98.7,19.563v-.094L115.141,0Z" transform="translate(-98.697 0)" fill="#fa9b53"/>
      <path id="Path_1066" data-name="Path 1066" d="M115.3,0,98.7,19.656v-.094L115.22,0Z" transform="translate(-98.697 0)" fill="#fa9a54"/>
      <path id="Path_1067" data-name="Path 1067" d="M115.378,0,98.7,19.75v-.094L115.3,0Z" transform="translate(-98.697 0)" fill="#fa9954"/>
      <path id="Path_1068" data-name="Path 1068" d="M115.457,0,98.7,19.844V19.75L115.379,0Z" transform="translate(-98.697 0)" fill="#fa9855"/>
      <path id="Path_1069" data-name="Path 1069" d="M115.537,0,98.7,19.938v-.094L115.458,0Z" transform="translate(-98.697 0)" fill="#fa9755"/>
      <path id="Path_1070" data-name="Path 1070" d="M115.616,0,98.7,20.032v-.094L115.537,0Z" transform="translate(-98.697 0)" fill="#fa9656"/>
      <path id="Path_1071" data-name="Path 1071" d="M115.7,0l-17,20.126v-.094L115.616,0Z" transform="translate(-98.697 0)" fill="#fa9556"/>
      <path id="Path_1072" data-name="Path 1072" d="M115.774,0,98.7,20.219v-.094L115.7,0Z" transform="translate(-98.697 0)" fill="#fa9457"/>
      <path id="Path_1073" data-name="Path 1073" d="M115.853,0,98.7,20.313v-.094L115.775,0Z" transform="translate(-98.697 0)" fill="#fa9357"/>
      <path id="Path_1074" data-name="Path 1074" d="M115.933,0,98.7,20.407v-.094L115.854,0Z" transform="translate(-98.697 0)" fill="#fa9258"/>
      <path id="Path_1075" data-name="Path 1075" d="M116.012,0,98.7,20.5v-.094L115.933,0Z" transform="translate(-98.697 0)" fill="#fa9158"/>
      <path id="Path_1076" data-name="Path 1076" d="M116.091,0,98.7,20.595V20.5L116.012,0Z" transform="translate(-98.697 0)" fill="#fa9058"/>
      <path id="Path_1077" data-name="Path 1077" d="M116.17,0,98.7,20.688v-.094L116.092,0Z" transform="translate(-98.697 0)" fill="#fa8f59"/>
      <path id="Path_1078" data-name="Path 1078" d="M116.25,0,98.7,20.782v-.094L116.171,0Z" transform="translate(-98.697 0)" fill="#fa8e59"/>
      <path id="Path_1079" data-name="Path 1079" d="M116.329,0,98.7,20.876v-.094L116.25,0Z" transform="translate(-98.697 0)" fill="#fa8d5a"/>
      <path id="Path_1080" data-name="Path 1080" d="M116.408,0,98.7,20.97v-.094L116.329,0Z" transform="translate(-98.697 0)" fill="#fa8c5a"/>
      <path id="Path_1081" data-name="Path 1081" d="M116.488,0,98.7,21.064V20.97L116.409,0Z" transform="translate(-98.697 0)" fill="#fa8b5b"/>
      <path id="Path_1082" data-name="Path 1082" d="M116.567,0,98.7,21.157v-.094L116.488,0Z" transform="translate(-98.697 0)" fill="#fa8a5b"/>
      <path id="Path_1083" data-name="Path 1083" d="M116.646,0,98.7,21.251v-.094L116.567,0Z" transform="translate(-98.697 0)" fill="#fa895c"/>
      <path id="Path_1084" data-name="Path 1084" d="M116.725,0,98.7,21.345v-.094L116.646,0Z" transform="translate(-98.697 0)" fill="#fa885c"/>
      <path id="Path_1085" data-name="Path 1085" d="M116.8,0,98.7,21.439v-.094L116.726,0Z" transform="translate(-98.697 0)" fill="#fa875d"/>
      <path id="Path_1086" data-name="Path 1086" d="M116.884,0,98.7,21.533v-.094L116.8,0Z" transform="translate(-98.697 0)" fill="#f9855d"/>
      <path id="Path_1087" data-name="Path 1087" d="M116.963,0,98.7,21.626v-.094L116.884,0Z" transform="translate(-98.697 0)" fill="#f9845d"/>
      <path id="Path_1088" data-name="Path 1088" d="M117.042,0,98.7,21.72v-.094L116.963,0Z" transform="translate(-98.697 0)" fill="#f9835e"/>
      <path id="Path_1089" data-name="Path 1089" d="M117.121,0,98.7,21.815V21.72L117.043,0Z" transform="translate(-98.697 0)" fill="#f9825e"/>
      <path id="Path_1090" data-name="Path 1090" d="M117.2,0,98.7,21.908v-.094L117.122,0Z" transform="translate(-98.697 0)" fill="#f9815f"/>
      <path id="Path_1091" data-name="Path 1091" d="M117.28,0,98.7,22v-.094L117.2,0Z" transform="translate(-98.697 0)" fill="#f9805f"/>
      <path id="Path_1092" data-name="Path 1092" d="M117.359,0,98.7,22.1V22L117.28,0Z" transform="translate(-98.697 0)" fill="#f97f60"/>
      <path id="Path_1093" data-name="Path 1093" d="M117.438,0,98.7,22.189V22.1L117.36,0Z" transform="translate(-98.697 0)" fill="#f97e60"/>
      <path id="Path_1094" data-name="Path 1094" d="M117.518,0,98.7,22.284v-.094L117.439,0Z" transform="translate(-98.697 0)" fill="#f97d61"/>
      <path id="Path_1095" data-name="Path 1095" d="M117.6,0,98.7,22.377v-.094L117.518,0Z" transform="translate(-98.697 0)" fill="#f97c61"/>
      <path id="Path_1096" data-name="Path 1096" d="M117.676,0,98.7,22.471v-.094L117.6,0Z" transform="translate(-98.697 0)" fill="#f97b61"/>
      <path id="Path_1097" data-name="Path 1097" d="M117.755,0,98.7,22.565v-.094L117.676,0Z" transform="translate(-98.697 0)" fill="#f97a62"/>
      <path id="Path_1098" data-name="Path 1098" d="M117.835,0,98.7,22.658v-.094L117.756,0Z" transform="translate(-98.697 0)" fill="#f97962"/>
      <path id="Path_1099" data-name="Path 1099" d="M117.914,0,98.7,22.753v-.094L117.835,0Z" transform="translate(-98.697 0)" fill="#f97863"/>
      <path id="Path_1100" data-name="Path 1100" d="M117.993,0,98.7,22.846v-.094L117.914,0Z" transform="translate(-98.697 0)" fill="#f97763"/>
      <path id="Path_1101" data-name="Path 1101" d="M118.072,0,98.7,22.94v-.094L117.993,0Z" transform="translate(-98.697 0)" fill="#f97664"/>
      <path id="Path_1102" data-name="Path 1102" d="M118.152,0,98.7,23.034V22.94L118.073,0Z" transform="translate(-98.697 0)" fill="#f97564"/>
      <path id="Path_1103" data-name="Path 1103" d="M118.231,0,98.7,23.127v-.094L118.152,0Z" transform="translate(-98.697 0)" fill="#f97465"/>
      <path id="Path_1104" data-name="Path 1104" d="M118.31,0,98.7,23.222v-.094L118.231,0Z" transform="translate(-98.697 0)" fill="#f97365"/>
      <path id="Path_1105" data-name="Path 1105" d="M118.389,0,98.7,23.315v-.094L118.31,0Z" transform="translate(-98.697 0)" fill="#f97266"/>
      <path id="Path_1106" data-name="Path 1106" d="M118.468,0,98.7,23.409v-.094L118.39,0Z" transform="translate(-98.697 0)" fill="#f87166"/>
      <path id="Path_1107" data-name="Path 1107" d="M118.548,0,98.7,23.5v-.094L118.469,0Z" transform="translate(-98.697 0)" fill="#f87066"/>
      <path id="Path_1108" data-name="Path 1108" d="M118.627,0,98.7,23.6V23.5L118.548,0Z" transform="translate(-98.697 0)" fill="#f86f67"/>
      <path id="Path_1109" data-name="Path 1109" d="M118.706,0,98.7,23.691V23.6L118.627,0Z" transform="translate(-98.697 0)" fill="#f86e67"/>
      <path id="Path_1110" data-name="Path 1110" d="M118.785,0,98.7,23.785v-.094L118.707,0Z" transform="translate(-98.697 0)" fill="#f86d68"/>
      <path id="Path_1111" data-name="Path 1111" d="M118.865,0,98.7,23.878v-.094L118.786,0Z" transform="translate(-98.697 0)" fill="#f86c68"/>
      <path id="Path_1112" data-name="Path 1112" d="M118.944,0,98.7,23.972v-.094L118.865,0Z" transform="translate(-98.697 0)" fill="#f86b69"/>
      <path id="Path_1113" data-name="Path 1113" d="M119.023,0,98.7,24.066v-.094L118.944,0Z" transform="translate(-98.697 0)" fill="#f86a69"/>
      <path id="Path_1114" data-name="Path 1114" d="M119.1,0,98.7,24.16v-.094L119.024,0Z" transform="translate(-98.697 0)" fill="#f8696a"/>
      <path id="Path_1115" data-name="Path 1115" d="M119.182,0,98.7,24.254V24.16L119.1,0Z" transform="translate(-98.697 0)" fill="#f8686a"/>
      <path id="Path_1116" data-name="Path 1116" d="M119.261,0,98.7,24.347v-.094L119.182,0Z" transform="translate(-98.697 0)" fill="#f8676b"/>
      <path id="Path_1117" data-name="Path 1117" d="M119.34,0,98.7,24.441v-.094L119.261,0Z" transform="translate(-98.697 0)" fill="#f8666b"/>
      <path id="Path_1118" data-name="Path 1118" d="M119.419,0,98.7,24.535v-.094L119.341,0Z" transform="translate(-98.697 0)" fill="#f8656b"/>
      <path id="Path_1119" data-name="Path 1119" d="M119.5,0,98.7,24.629v-.094L119.42,0Z" transform="translate(-98.697 0)" fill="#f8646c"/>
      <path id="Path_1120" data-name="Path 1120" d="M119.578,0,98.7,24.723v-.094L119.5,0Z" transform="translate(-98.697 0)" fill="#f8636c"/>
      <path id="Path_1121" data-name="Path 1121" d="M119.657,0,98.7,24.816v-.094L119.578,0Z" transform="translate(-98.697 0)" fill="#f8626d"/>
      <path id="Path_1122" data-name="Path 1122" d="M119.736,0,98.7,24.91v-.094L119.657,0Z" transform="translate(-98.697 0)" fill="#f8616d"/>
      <path id="Path_1123" data-name="Path 1123" d="M119.815,0,98.7,25V24.91L119.737,0Z" transform="translate(-98.697 0)" fill="#f8606e"/>
      <path id="Path_1124" data-name="Path 1124" d="M119.895,0,98.7,25.1V25L119.816,0Z" transform="translate(-98.697 0)" fill="#f85f6e"/>
      <path id="Path_1125" data-name="Path 1125" d="M119.974,0,98.7,25.192V25.1L119.9,0Z" transform="translate(-98.697 0)" fill="#f85e6f"/>
      <path id="Path_1126" data-name="Path 1126" d="M120.053,0,98.7,25.285v-.094L119.974,0Z" transform="translate(-98.697 0)" fill="#f85d6f"/>
      <path id="Path_1127" data-name="Path 1127" d="M120.133,0,98.7,25.379v-.094L120.054,0Z" transform="translate(-98.697 0)" fill="#f75c6f"/>
      <path id="Path_1128" data-name="Path 1128" d="M120.212,0,98.7,25.474v-.094L120.133,0Z" transform="translate(-98.697 0)" fill="#f75b70"/>
      <path id="Path_1129" data-name="Path 1129" d="M120.291,0,98.7,25.567v-.094L120.212,0Z" transform="translate(-98.697 0)" fill="#f75a70"/>
      <path id="Path_1130" data-name="Path 1130" d="M120.37,0,98.7,25.661v-.094L120.291,0Z" transform="translate(-98.697 0)" fill="#f75971"/>
      <path id="Path_1131" data-name="Path 1131" d="M120.45,0,98.714,25.736l-.016-.014v-.061L120.371,0Z" transform="translate(-98.697 0)" fill="#f75871"/>
      <path id="Path_1132" data-name="Path 1132" d="M120.532,0,98.763,25.774l-.046-.039L120.453,0Z" transform="translate(-98.701 0)" fill="#f75772"/>
      <path id="Path_1133" data-name="Path 1133" d="M120.622,0l-21.8,25.814-.046-.039L120.543,0Z" transform="translate(-98.711 0)" fill="#f75672"/>
      <path id="Path_1134" data-name="Path 1134" d="M120.711,0,98.876,25.852l-.046-.039L120.632,0Z" transform="translate(-98.721 0)" fill="#f75573"/>
      <path id="Path_1135" data-name="Path 1135" d="M120.8,0,98.932,25.892l-.046-.039L120.721,0Z" transform="translate(-98.731 0)" fill="#f75473"/>
      <path id="Path_1136" data-name="Path 1136" d="M120.89,0l-21.9,25.93-.046-.039L120.811,0Z" transform="translate(-98.741 0)" fill="#f75374"/>
      <path id="Path_1137" data-name="Path 1137" d="M120.979,0,99.045,25.97,99,25.93,120.9,0Z" transform="translate(-98.751 0)" fill="#f75274"/>
      <path id="Path_1138" data-name="Path 1138" d="M121.2,0,99.18,26.077l-.126-.107L120.988,0Z" transform="translate(-98.761 0)" fill="#f75274"/>
      <path id="Path_1139" data-name="Path 1139" d="M121.448,0,99.334,26.183l-.126-.106L121.232,0Z" transform="translate(-98.788 0)" fill="#f65175"/>
      <path id="Path_1140" data-name="Path 1140" d="M121.691,0l-22.2,26.289-.127-.106L121.475,0Z" transform="translate(-98.816 0)" fill="#f55076"/>
      <path id="Path_1141" data-name="Path 1141" d="M121.934,0,99.64,26.4l-.126-.107L121.718,0Z" transform="translate(-98.843 0)" fill="#f44f77"/>
      <path id="Path_1142" data-name="Path 1142" d="M122.177,0,99.794,26.5l-.127-.106L121.961,0Z" transform="translate(-98.87 0)" fill="#f34f78"/>
      <path id="Path_1143" data-name="Path 1143" d="M122.42,0,99.947,26.608l-.126-.107L122.2,0Z" transform="translate(-98.898 0)" fill="#f24e79"/>
      <path id="Path_1144" data-name="Path 1144" d="M122.664,0,100.1,26.714l-.126-.106L122.448,0Z" transform="translate(-98.925 0)" fill="#f14d79"/>
      <path id="Path_1145" data-name="Path 1145" d="M122.907,0,100.254,26.821l-.127-.107L122.69,0Z" transform="translate(-98.952 0)" fill="#f04c7a"/>
      <path id="Path_1146" data-name="Path 1146" d="M123.15,0,100.407,26.927l-.126-.106L122.934,0Z" transform="translate(-98.98 0)" fill="#ef4b7b"/>
      <path id="Path_1147" data-name="Path 1147" d="M123.393,0,100.561,27.034l-.126-.107L123.177,0Z" transform="translate(-99.007 0)" fill="#ee4a7c"/>
      <path id="Path_1148" data-name="Path 1148" d="M123.636,0,100.714,27.14l-.127-.106L123.42,0Z" transform="translate(-99.034 0)" fill="#ed4a7d"/>
      <path id="Path_1149" data-name="Path 1149" d="M123.879,0,100.867,27.246l-.126-.107L123.663,0Z" transform="translate(-99.062 0)" fill="#ec497e"/>
      <path id="Path_1150" data-name="Path 1150" d="M124.122,0l-23.1,27.352-.126-.106L123.906,0Z" transform="translate(-99.089 0)" fill="#eb487f"/>
      <path id="Path_1151" data-name="Path 1151" d="M124.223,0l.083.071L101.174,27.459l-.126-.107L124.15,0Z" transform="translate(-99.117 0)" fill="#ea4780"/>
      <path id="Path_1152" data-name="Path 1152" d="M124.334.086l.126.107L101.327,27.581l-.126-.107Z" transform="translate(-99.144 -0.015)" fill="#e94681"/>
      <rect id="Rectangle_1151" data-name="Rectangle 1151" width="35.851" height="0.165" transform="translate(2.195 27.575) rotate(-49.864)" fill="#e84582"/>
      <rect id="Rectangle_1152" data-name="Rectangle 1152" width="35.851" height="0.165" transform="translate(2.321 27.682) rotate(-49.864)" fill="#e74483"/>
      <rect id="Rectangle_1153" data-name="Rectangle 1153" width="35.851" height="0.165" transform="translate(2.447 27.788) rotate(-49.864)" fill="#e54483"/>
      <rect id="Rectangle_1154" data-name="Rectangle 1154" width="35.851" height="0.165" transform="translate(2.572 27.894) rotate(-49.864)" fill="#e44384"/>
      <rect id="Rectangle_1155" data-name="Rectangle 1155" width="35.851" height="0.165" transform="translate(2.698 28.001) rotate(-49.864)" fill="#e34285"/>
      <rect id="Rectangle_1156" data-name="Rectangle 1156" width="35.851" height="0.165" transform="translate(2.824 28.107) rotate(-49.864)" fill="#e24186"/>
      <rect id="Rectangle_1157" data-name="Rectangle 1157" width="35.851" height="0.165" transform="translate(2.95 28.214) rotate(-49.864)" fill="#e14087"/>
      <rect id="Rectangle_1158" data-name="Rectangle 1158" width="35.851" height="0.165" transform="translate(3.076 28.32) rotate(-49.864)" fill="#e03f88"/>
      <rect id="Rectangle_1159" data-name="Rectangle 1159" width="35.851" height="0.165" transform="translate(3.202 28.426) rotate(-49.864)" fill="#df3e89"/>
      <rect id="Rectangle_1160" data-name="Rectangle 1160" width="35.851" height="0.165" transform="translate(3.328 28.533) rotate(-49.864)" fill="#de3e8a"/>
      <rect id="Rectangle_1161" data-name="Rectangle 1161" width="35.851" height="0.165" transform="translate(3.454 28.639) rotate(-49.864)" fill="#dd3d8b"/>
      <rect id="Rectangle_1162" data-name="Rectangle 1162" width="35.851" height="0.165" transform="translate(3.58 28.745) rotate(-49.864)" fill="#dc3c8c"/>
      <rect id="Rectangle_1163" data-name="Rectangle 1163" width="35.851" height="0.165" transform="translate(3.706 28.852) rotate(-49.864)" fill="#db3b8d"/>
      <path id="Path_1153" data-name="Path 1153" d="M126.48,1.9l.126.107L103.473,29.394l-.126-.107Z" transform="translate(-99.527 -0.339)" fill="#da3a8d"/>
      <path id="Path_1154" data-name="Path 1154" d="M126.633,2.028l.126.106L103.706,29.429h-.191l-.014-.012Z" transform="translate(-99.554 -0.362)" fill="#d9398e"/>
      <path id="Path_1155" data-name="Path 1155" d="M126.8,2.157l.126.106L103.967,29.451h-.216Z" transform="translate(-99.599 -0.385)" fill="#d8398f"/>
      <path id="Path_1156" data-name="Path 1156" d="M126.977,2.287l.126.106L104.23,29.475h-.216Z" transform="translate(-99.646 -0.408)" fill="#d73890"/>
      <path id="Path_1157" data-name="Path 1157" d="M127.15,2.416l.126.106L104.492,29.5h-.215Z" transform="translate(-99.693 -0.431)" fill="#d63791"/>
      <path id="Path_1158" data-name="Path 1158" d="M127.322,2.546l.126.106L104.755,29.521h-.216Z" transform="translate(-99.74 -0.454)" fill="#d53692"/>
      <path id="Path_1159" data-name="Path 1159" d="M127.5,2.675l.09.076-22.63,26.793H104.8Z" transform="translate(-99.787 -0.478)" fill="#d53692"/>
      <path id="Path_1160" data-name="Path 1160" d="M127.618,2.767l.09.076L105.142,29.56h-.154Z" transform="translate(-99.82 -0.494)" fill="#d43693"/>
      <path id="Path_1161" data-name="Path 1161" d="M127.741,2.859l.09.076-22.5,26.642h-.154Z" transform="translate(-99.853 -0.51)" fill="#d33694"/>
      <path id="Path_1162" data-name="Path 1162" d="M127.864,2.952l.09.076L105.515,29.593h-.153Z" transform="translate(-99.887 -0.527)" fill="#d23695"/>
      <path id="Path_1163" data-name="Path 1163" d="M127.987,3.044l.09.076L105.7,29.61h-.154Z" transform="translate(-99.92 -0.543)" fill="#d13695"/>
      <path id="Path_1164" data-name="Path 1164" d="M128.109,3.136l.09.076-22.31,26.415h-.154Z" transform="translate(-99.953 -0.56)" fill="#d03696"/>
      <path id="Path_1165" data-name="Path 1165" d="M128.232,3.228l.09.076L106.076,29.643h-.154Z" transform="translate(-99.987 -0.576)" fill="#cf3697"/>
      <path id="Path_1166" data-name="Path 1166" d="M128.355,3.32l.09.076L106.262,29.659h-.153Z" transform="translate(-100.02 -0.592)" fill="#ce3698"/>
      <path id="Path_1167" data-name="Path 1167" d="M128.478,3.412l.09.076L106.449,29.676H106.3Z" transform="translate(-100.053 -0.609)" fill="#cd3699"/>
      <path id="Path_1168" data-name="Path 1168" d="M128.6,3.5l.09.076L106.636,29.692h-.154Z" transform="translate(-100.087 -0.625)" fill="#cc369a"/>
      <path id="Path_1169" data-name="Path 1169" d="M128.724,3.6l.09.076L106.822,29.708h-.153Z" transform="translate(-100.12 -0.642)" fill="#cb369b"/>
      <path id="Path_1170" data-name="Path 1170" d="M128.846,3.688l.09.076L107.009,29.725h-.154Z" transform="translate(-100.153 -0.658)" fill="#ca369c"/>
      <path id="Path_1171" data-name="Path 1171" d="M128.969,3.78l.09.076L107.2,29.741h-.154Z" transform="translate(-100.186 -0.675)" fill="#c9379c"/>
      <path id="Path_1172" data-name="Path 1172" d="M129.092,3.872l.09.076-21.8,25.81h-.154Z" transform="translate(-100.22 -0.691)" fill="#c8379d"/>
      <path id="Path_1173" data-name="Path 1173" d="M129.215,3.964l.09.076L107.569,29.774h-.153Z" transform="translate(-100.253 -0.707)" fill="#c7379e"/>
      <path id="Path_1174" data-name="Path 1174" d="M129.338,4.056l.016.013v.15l-21.6,25.571H107.6Z" transform="translate(-100.286 -0.724)" fill="#c6379f"/>
      <path id="Path_1175" data-name="Path 1175" d="M129.386,4.436l-21.444,25.39h-.154l21.6-25.571Z" transform="translate(-100.32 -0.759)" fill="#c537a0"/>
      <path id="Path_1176" data-name="Path 1176" d="M129.42,4.657l-21.29,25.208h-.154L129.42,4.476Z" transform="translate(-100.353 -0.799)" fill="#c437a1"/>
      <path id="Path_1177" data-name="Path 1177" d="M129.453,4.879,108.316,29.905h-.154L129.453,4.7Z" transform="translate(-100.386 -0.838)" fill="#c337a2"/>
      <path id="Path_1178" data-name="Path 1178" d="M129.487,5.1,108.5,29.945h-.153L129.487,4.918Z" transform="translate(-100.42 -0.878)" fill="#c237a3"/>
      <path id="Path_1179" data-name="Path 1179" d="M129.52,5.321l-20.83,24.664h-.154L129.52,5.139Z" transform="translate(-100.453 -0.917)" fill="#c137a3"/>
      <path id="Path_1180" data-name="Path 1180" d="M129.553,5.542,108.876,30.023h-.154L129.553,5.36Z" transform="translate(-100.486 -0.957)" fill="#c037a4"/>
      <path id="Path_1181" data-name="Path 1181" d="M129.586,5.763l-20.524,24.3h-.153L129.586,5.581Z" transform="translate(-100.52 -0.996)" fill="#bf37a5"/>
      <path id="Path_1182" data-name="Path 1182" d="M129.62,5.984,109.249,30.1H109.1L129.62,5.8Z" transform="translate(-100.553 -1.036)" fill="#be37a6"/>
      <path id="Path_1183" data-name="Path 1183" d="M129.653,6.2,109.436,30.141h-.154l20.37-24.118Z" transform="translate(-100.586 -1.075)" fill="#bd37a7"/>
      <path id="Path_1184" data-name="Path 1184" d="M129.686,6.426,109.623,30.181h-.153L129.686,6.244Z" transform="translate(-100.62 -1.115)" fill="#bc37a8"/>
      <path id="Path_1185" data-name="Path 1185" d="M129.72,6.647,109.809,30.22h-.154L129.72,6.465Z" transform="translate(-100.653 -1.154)" fill="#bb37a9"/>
      <path id="Path_1186" data-name="Path 1186" d="M129.753,6.868,110,30.26h-.154l19.91-23.573Z" transform="translate(-100.686 -1.193)" fill="#ba37a9"/>
      <path id="Path_1187" data-name="Path 1187" d="M129.786,7.089l-19.6,23.21h-.154L129.786,6.908Z" transform="translate(-100.72 -1.233)" fill="#b937aa"/>
      <path id="Path_1188" data-name="Path 1188" d="M129.82,7.31l-19.45,23.029h-.153l19.6-23.21Z" transform="translate(-100.753 -1.272)" fill="#b837ab"/>
      <path id="Path_1189" data-name="Path 1189" d="M129.853,7.531l-19.3,22.847H110.4L129.853,7.35Z" transform="translate(-100.786 -1.312)" fill="#b737ac"/>
      <path id="Path_1190" data-name="Path 1190" d="M129.886,7.752,110.743,30.418h-.154l19.3-22.847Z" transform="translate(-100.82 -1.351)" fill="#b637ad"/>
      <path id="Path_1191" data-name="Path 1191" d="M129.92,7.973,110.93,30.457h-.153L129.92,7.792Z" transform="translate(-100.853 -1.391)" fill="#b537ae"/>
      <path id="Path_1192" data-name="Path 1192" d="M129.953,8.194,111.116,30.5h-.154l18.99-22.484Z" transform="translate(-100.886 -1.43)" fill="#b437af"/>
      <path id="Path_1193" data-name="Path 1193" d="M129.986,8.415,111.3,30.536h-.154l18.837-22.3Z" transform="translate(-100.92 -1.47)" fill="#b337b0"/>
      <path id="Path_1194" data-name="Path 1194" d="M130.02,8.636,111.49,30.576h-.153L130.02,8.455Z" transform="translate(-100.953 -1.509)" fill="#b138b0"/>
      <path id="Path_1195" data-name="Path 1195" d="M130.053,8.857,111.676,30.615h-.154l18.53-21.939Z" transform="translate(-100.986 -1.548)" fill="#b038b1"/>
      <path id="Path_1196" data-name="Path 1196" d="M130.086,9.078,111.863,30.655h-.154L130.086,8.9Z" transform="translate(-101.02 -1.588)" fill="#af38b2"/>
      <path id="Path_1197" data-name="Path 1197" d="M130.12,9.3,112.05,30.694H111.9L130.12,9.118Z" transform="translate(-101.053 -1.627)" fill="#ae38b3"/>
      <path id="Path_1198" data-name="Path 1198" d="M130.153,9.521,112.237,30.734h-.153L130.153,9.339Z" transform="translate(-101.086 -1.667)" fill="#ad38b4"/>
      <path id="Path_1199" data-name="Path 1199" d="M130.186,9.742,112.423,30.773h-.154L130.186,9.56Z" transform="translate(-101.119 -1.706)" fill="#ac38b5"/>
      <path id="Path_1200" data-name="Path 1200" d="M130.22,9.963,112.61,30.812h-.154L130.22,9.781Z" transform="translate(-101.153 -1.746)" fill="#ab38b6"/>
      <path id="Path_1201" data-name="Path 1201" d="M130.253,10.184,112.8,30.851h-.153L130.253,10Z" transform="translate(-101.186 -1.785)" fill="#aa38b7"/>
      <path id="Path_1202" data-name="Path 1202" d="M130.286,10.4l-17.3,20.486h-.154l17.456-20.668Z" transform="translate(-101.219 -1.825)" fill="#a938b7"/>
      <path id="Path_1203" data-name="Path 1203" d="M130.32,10.626,113.17,30.93h-.154l17.3-20.486Z" transform="translate(-101.253 -1.864)" fill="#a838b8"/>
      <path id="Path_1204" data-name="Path 1204" d="M130.353,10.847l-17,20.123H113.2l17.149-20.3Z" transform="translate(-101.286 -1.904)" fill="#a738b9"/>
      <path id="Path_1205" data-name="Path 1205" d="M130.386,11.068,113.543,31.009h-.154l17-20.123Z" transform="translate(-101.319 -1.943)" fill="#a638ba"/>
      <path id="Path_1206" data-name="Path 1206" d="M130.419,11.289,113.73,31.049h-.154l16.843-19.942Z" transform="translate(-101.353 -1.982)" fill="#a538bb"/>
      <path id="Path_1207" data-name="Path 1207" d="M130.453,11.51,113.917,31.088h-.154l16.689-19.76Z" transform="translate(-101.386 -2.022)" fill="#a438bc"/>
      <path id="Path_1208" data-name="Path 1208" d="M130.486,11.731,114.1,31.128h-.153L130.486,11.55Z" transform="translate(-101.42 -2.061)" fill="#a338bd"/>
      <path id="Path_1209" data-name="Path 1209" d="M130.519,11.952,114.29,31.167h-.154l16.383-19.4Z" transform="translate(-101.453 -2.101)" fill="#a238bd"/>
      <path id="Path_1210" data-name="Path 1210" d="M130.553,12.173,114.477,31.207h-.154l16.229-19.215Z" transform="translate(-101.486 -2.14)" fill="#a138be"/>
      <path id="Path_1211" data-name="Path 1211" d="M130.586,12.394,114.663,31.246h-.153l16.075-19.034Z" transform="translate(-101.519 -2.18)" fill="#a038bf"/>
      <path id="Path_1212" data-name="Path 1212" d="M130.619,12.615,114.85,31.286H114.7l15.923-18.852Z" transform="translate(-101.553 -2.219)" fill="#9f38c0"/>
      <path id="Path_1213" data-name="Path 1213" d="M130.653,12.836,115.037,31.325h-.154l15.769-18.671Z" transform="translate(-101.586 -2.259)" fill="#9e38c1"/>
      <path id="Path_1214" data-name="Path 1214" d="M130.686,13.057,115.224,31.365h-.153l15.615-18.489Z" transform="translate(-101.619 -2.298)" fill="#9d38c2"/>
      <path id="Path_1215" data-name="Path 1215" d="M130.719,13.278,115.41,31.4h-.154L130.719,13.1Z" transform="translate(-101.653 -2.338)" fill="#9c38c3"/>
      <path id="Path_1216" data-name="Path 1216" d="M130.753,13.5,115.6,31.444h-.154l15.309-18.126Z" transform="translate(-101.686 -2.377)" fill="#9b38c4"/>
      <path id="Path_1217" data-name="Path 1217" d="M130.786,13.721l-15,17.763h-.154l15.155-17.944Z" transform="translate(-101.719 -2.416)" fill="#9a39c4"/>
      <path id="Path_1218" data-name="Path 1218" d="M130.819,13.942,115.971,31.523h-.153l15-17.763Z" transform="translate(-101.753 -2.456)" fill="#9939c5"/>
      <path id="Path_1219" data-name="Path 1219" d="M130.853,14.163l-14.7,17.4H116l14.849-17.58Z" transform="translate(-101.786 -2.495)" fill="#9839c6"/>
      <path id="Path_1220" data-name="Path 1220" d="M130.886,14.384,116.344,31.6h-.154l14.7-17.4Z" transform="translate(-101.819 -2.535)" fill="#9739c7"/>
      <path id="Path_1221" data-name="Path 1221" d="M130.919,14.6,116.531,31.641h-.153l14.542-17.217Z" transform="translate(-101.853 -2.574)" fill="#9639c8"/>
      <path id="Path_1222" data-name="Path 1222" d="M130.953,14.826,116.717,31.68h-.154l14.389-17.036Z" transform="translate(-101.886 -2.614)" fill="#9539c9"/>
      <path id="Path_1223" data-name="Path 1223" d="M130.986,15.047,116.9,31.72h-.154l14.235-16.854Z" transform="translate(-101.919 -2.653)" fill="#9439ca"/>
      <path id="Path_1224" data-name="Path 1224" d="M131.019,15.268,117.09,31.759h-.153l14.082-16.673Z" transform="translate(-101.953 -2.693)" fill="#9339cb"/>
      <path id="Path_1225" data-name="Path 1225" d="M131.053,15.489,117.277,31.8h-.154l13.929-16.491Z" transform="translate(-101.986 -2.732)" fill="#9239cb"/>
      <path id="Path_1226" data-name="Path 1226" d="M131.086,15.71,117.464,31.838h-.154l13.775-16.31Z" transform="translate(-102.019 -2.772)" fill="#9139cc"/>
      <path id="Path_1227" data-name="Path 1227" d="M131.119,15.931,117.651,31.878H117.5L131.119,15.75Z" transform="translate(-102.053 -2.811)" fill="#9039cd"/>
      <path id="Path_1228" data-name="Path 1228" d="M131.153,16.152,117.838,31.917h-.153l13.468-15.946Z" transform="translate(-102.086 -2.85)" fill="#8f39ce"/>
      <path id="Path_1229" data-name="Path 1229" d="M131.186,16.487,118.12,31.956h-.25l13.315-15.765Z" transform="translate(-102.119 -2.89)" fill="#8f39ce"/>
      <path id="Path_1230" data-name="Path 1230" d="M131.24,16.846,118.424,32.021h-.25l13.065-15.47Z" transform="translate(-102.173 -2.954)" fill="#8e39cf"/>
      <path id="Path_1231" data-name="Path 1231" d="M131.294,17.206,118.728,32.085h-.249L131.294,16.91Z" transform="translate(-102.228 -3.018)" fill="#8d3acf"/>
      <path id="Path_1232" data-name="Path 1232" d="M131.348,17.566,119.031,32.149h-.25L131.348,17.27Z" transform="translate(-102.282 -3.082)" fill="#8c3ad0"/>
      <path id="Path_1233" data-name="Path 1233" d="M131.4,17.925,119.335,32.213h-.25L131.4,17.63Z" transform="translate(-102.336 -3.147)" fill="#8b3bd0"/>
      <path id="Path_1234" data-name="Path 1234" d="M131.457,18.285,119.639,32.278h-.249l12.067-14.289Z" transform="translate(-102.39 -3.211)" fill="#8a3bd1"/>
      <path id="Path_1235" data-name="Path 1235" d="M131.511,18.644l-11.569,13.7h-.25l11.818-13.993Z" transform="translate(-102.444 -3.275)" fill="#893cd1"/>
      <path id="Path_1236" data-name="Path 1236" d="M131.565,19l-11.319,13.4H120l11.569-13.7Z" transform="translate(-102.499 -3.339)" fill="#883cd2"/>
      <path id="Path_1237" data-name="Path 1237" d="M131.62,19.364,120.55,32.47H120.3l11.319-13.4Z" transform="translate(-102.553 -3.403)" fill="#873cd2"/>
      <path id="Path_1238" data-name="Path 1238" d="M131.674,19.723l-10.82,12.811h-.25l11.07-13.106Z" transform="translate(-102.607 -3.467)" fill="#863dd3"/>
      <path id="Path_1239" data-name="Path 1239" d="M131.728,20.083,121.157,32.6h-.25l10.82-12.812Z" transform="translate(-102.661 -3.532)" fill="#853dd3"/>
      <path id="Path_1240" data-name="Path 1240" d="M131.782,20.442l-10.321,12.22h-.25l10.57-12.516Z" transform="translate(-102.715 -3.596)" fill="#843ed4"/>
      <path id="Path_1241" data-name="Path 1241" d="M131.836,20.8,121.765,32.727h-.249l10.321-12.221Z" transform="translate(-102.77 -3.66)" fill="#833ed4"/>
      <path id="Path_1242" data-name="Path 1242" d="M131.891,21.161l-9.822,11.629h-.25l10.072-11.925Z" transform="translate(-102.824 -3.724)" fill="#823fd5"/>
      <path id="Path_1243" data-name="Path 1243" d="M131.945,21.521l-9.572,11.334h-.25l9.822-11.629Z" transform="translate(-102.878 -3.788)" fill="#813fd5"/>
      <path id="Path_1244" data-name="Path 1244" d="M132,21.881l-9.323,11.039h-.249L132,21.585Z" transform="translate(-102.932 -3.853)" fill="#803fd6"/>
      <path id="Path_1245" data-name="Path 1245" d="M132.053,22.24l-9.074,10.743h-.25l9.323-11.039Z" transform="translate(-102.986 -3.917)" fill="#7f40d6"/>
      <path id="Path_1246" data-name="Path 1246" d="M132.107,22.6l-8.824,10.448h-.25L132.107,22.3Z" transform="translate(-103.041 -3.981)" fill="#7e40d7"/>
      <path id="Path_1247" data-name="Path 1247" d="M132.162,22.959l-8.575,10.152h-.249l8.824-10.448Z" transform="translate(-103.095 -4.045)" fill="#7d41d8"/>
      <path id="Path_1248" data-name="Path 1248" d="M132.216,23.319l-8.325,9.857h-.25l8.575-10.153Z" transform="translate(-103.149 -4.109)" fill="#7c41d8"/>
      <path id="Path_1249" data-name="Path 1249" d="M132.27,23.678l-8.076,9.562h-.25l8.325-9.857Z" transform="translate(-103.203 -4.173)" fill="#7b42d9"/>
      <path id="Path_1250" data-name="Path 1250" d="M132.324,24.038,124.5,33.3h-.249l8.076-9.562Z" transform="translate(-103.258 -4.238)" fill="#7a42d9"/>
      <path id="Path_1251" data-name="Path 1251" d="M132.378,24.4,124.8,33.369h-.25l7.827-9.267Z" transform="translate(-103.312 -4.302)" fill="#7942da"/>
      <path id="Path_1252" data-name="Path 1252" d="M132.433,24.757l-7.327,8.675h-.25l7.577-8.971Z" transform="translate(-103.366 -4.366)" fill="#7843da"/>
      <path id="Path_1253" data-name="Path 1253" d="M132.487,25.117l-7.077,8.38h-.25l7.327-8.676Z" transform="translate(-103.42 -4.43)" fill="#7743db"/>
      <path id="Path_1254" data-name="Path 1254" d="M132.541,25.476l-6.828,8.085h-.249l7.077-8.38Z" transform="translate(-103.474 -4.494)" fill="#7644db"/>
      <path id="Path_1255" data-name="Path 1255" d="M132.6,25.836l-6.579,7.79h-.25L132.6,25.54Z" transform="translate(-103.528 -4.558)" fill="#7444dc"/>
      <path id="Path_1256" data-name="Path 1256" d="M132.649,26.2l-6.329,7.494h-.25l6.579-7.79Z" transform="translate(-103.583 -4.623)" fill="#7345dc"/>
      <path id="Path_1257" data-name="Path 1257" d="M132.7,26.555l-6.08,7.2h-.249l6.329-7.494Z" transform="translate(-103.637 -4.687)" fill="#7245dd"/>
      <path id="Path_1258" data-name="Path 1258" d="M132.758,26.915l-5.83,6.9h-.25l6.08-7.2Z" transform="translate(-103.691 -4.751)" fill="#7146dd"/>
      <path id="Path_1259" data-name="Path 1259" d="M132.812,27.274l-5.581,6.607h-.25l5.83-6.9Z" transform="translate(-103.745 -4.815)" fill="#7046de"/>
      <path id="Path_1260" data-name="Path 1260" d="M132.866,27.634l-5.332,6.313h-.249l5.581-6.608Z" transform="translate(-103.8 -4.879)" fill="#6f46de"/>
      <path id="Path_1261" data-name="Path 1261" d="M132.92,27.993l-5.082,6.017h-.25L132.92,27.7Z" transform="translate(-103.854 -4.944)" fill="#6e47df"/>
      <path id="Path_1262" data-name="Path 1262" d="M132.975,28.353l-4.832,5.722h-.25l5.082-6.018Z" transform="translate(-103.908 -5.008)" fill="#6d47df"/>
      <path id="Path_1263" data-name="Path 1263" d="M133.029,28.712l-4.583,5.426H128.2l4.832-5.722Z" transform="translate(-103.962 -5.072)" fill="#6c48e0"/>
      <path id="Path_1264" data-name="Path 1264" d="M133.083,29.072l-4.334,5.13h-.25l4.583-5.426Z" transform="translate(-104.016 -5.136)" fill="#6b48e1"/>
      <path id="Path_1265" data-name="Path 1265" d="M133.137,29.432l-4.084,4.835h-.25l4.334-5.131Z" transform="translate(-104.071 -5.2)" fill="#6a49e1"/>
      <path id="Path_1266" data-name="Path 1266" d="M133.191,29.791l-3.834,4.54h-.25l4.084-4.835Z" transform="translate(-104.125 -5.264)" fill="#6949e2"/>
      <path id="Path_1267" data-name="Path 1267" d="M133.246,30.151,129.661,34.4h-.249l3.834-4.541Z" transform="translate(-104.179 -5.329)" fill="#6849e2"/>
      <path id="Path_1268" data-name="Path 1268" d="M133.3,30.51l-3.335,3.949h-.25l3.585-4.245Z" transform="translate(-104.233 -5.393)" fill="#674ae3"/>
      <path id="Path_1269" data-name="Path 1269" d="M133.354,30.87l-3.086,3.654h-.25l3.335-3.95Z" transform="translate(-104.287 -5.457)" fill="#664ae3"/>
      <path id="Path_1270" data-name="Path 1270" d="M133.408,31.229l-2.837,3.358h-.249l3.086-3.654Z" transform="translate(-104.342 -5.521)" fill="#654be4"/>
      <path id="Path_1271" data-name="Path 1271" d="M133.462,31.589l-2.587,3.063h-.25l2.837-3.358Z" transform="translate(-104.396 -5.585)" fill="#644be4"/>
      <path id="Path_1272" data-name="Path 1272" d="M133.517,31.949l-2.337,2.768h-.25l2.587-3.063Z" transform="translate(-104.45 -5.649)" fill="#634ce5"/>
      <path id="Path_1273" data-name="Path 1273" d="M133.571,32.308l-2.088,2.472h-.249l2.337-2.768Z" transform="translate(-104.504 -5.714)" fill="#624ce5"/>
      <path id="Path_1274" data-name="Path 1274" d="M133.625,32.668l-1.839,2.177h-.25l2.088-2.473Z" transform="translate(-104.558 -5.778)" fill="#614ce6"/>
      <path id="Path_1275" data-name="Path 1275" d="M133.679,33.027l-1.589,1.881h-.25l1.839-2.177Z" transform="translate(-104.613 -5.842)" fill="#604de6"/>
      <path id="Path_1276" data-name="Path 1276" d="M133.734,33.387l-1.34,1.586h-.249l1.589-1.882Z" transform="translate(-104.667 -5.906)" fill="#5f4de7"/>
      <path id="Path_1277" data-name="Path 1277" d="M133.788,33.746l-1.09,1.291h-.25l1.34-1.586Z" transform="translate(-104.721 -5.97)" fill="#5e4ee7"/>
      <path id="Path_1278" data-name="Path 1278" d="M133.842,34.106,133,35.1h-.25l1.09-1.291Z" transform="translate(-104.775 -6.035)" fill="#5d4ee8"/>
      <path id="Path_1279" data-name="Path 1279" d="M133.9,34.466l-.591.7h-.25l.84-1Z" transform="translate(-104.829 -6.099)" fill="#5c4fe8"/>
      <path id="Path_1280" data-name="Path 1280" d="M133.95,34.825l-.342.4h-.249l.591-.7Z" transform="translate(-104.884 -6.163)" fill="#5b4fe9"/>
      <path id="Path_1281" data-name="Path 1281" d="M133.663,35.294l.342-.4v.4Z" transform="translate(-104.938 -6.227)" fill="#5b4fe9"/>
    </g>
    <path id="Path_1283" data-name="Path 1283" d="M121.662,11a1,1,0,1,0,1,1,1,1,0,0,0-1-1" transform="translate(969.276 533.071)" fill="#fff"/>
    <path id="Path_1284" data-name="Path 1284" d="M115.561,12.558a4.2,4.2,0,1,0,4.2,4.2,4.2,4.2,0,0,0-4.2-4.2m0,6.884a2.688,2.688,0,1,1,2.688-2.688,2.691,2.691,0,0,1-2.688,2.688" transform="translate(970.936 532.792)" fill="#fff"/>
    <path id="Path_1285" data-name="Path 1285" d="M117.938,24.335h-6.8a5.124,5.124,0,0,1-5.118-5.118v-6.8A5.123,5.123,0,0,1,111.135,7.3h6.8a5.124,5.124,0,0,1,5.119,5.118v6.8a5.124,5.124,0,0,1-5.119,5.118M111.135,8.9a3.519,3.519,0,0,0-3.515,3.515v6.8a3.519,3.519,0,0,0,3.515,3.515h6.8a3.519,3.519,0,0,0,3.515-3.515v-6.8A3.519,3.519,0,0,0,117.938,8.9Z" transform="translate(971.891 533.732)" fill="#fff"/>
  </g>
</svg>
