<svg xmlns="http://www.w3.org/2000/svg" width="33.81" height="32.674" viewBox="0 0 33.81 32.674">
  <g id="Group_40306" data-name="Group 40306" transform="translate(972.099 -8.601)">
    <path id="Path_20878" data-name="Path 20878" d="M-904.066,334.609s-7.243,0-7.367-.011v2.894A8.312,8.312,0,0,0-909,343.344l2.412,2.4,5.208-5.208-2.684-2.684Z" transform="translate(-56.66 -304.47)" fill="#702c8a"/>
    <path id="Path_20879" data-name="Path 20879" d="M-519.1,120.772V131.4a5.579,5.579,0,0,0,3.9-5.312A5.578,5.578,0,0,0-519.1,120.772Z" transform="translate(-423.085 -104.764)" fill="#702c8a"/>
    <path id="Path_20880" data-name="Path 20880" d="M-951.958,11.425l-7.813,2.832-1.981.224h-6.34V14.5a4.387,4.387,0,0,0-4.006,4.364v4.914a4.388,4.388,0,0,0,3.734,4.333v.048l8.595.224,4.578,1.659,5.217,1.891h0l5.811,2.106V8.6l-3.667,1.329Z" fill="#702c8a"/>
  </g>
</svg>
