<svg id="sellhome_HP" xmlns="http://www.w3.org/2000/svg" width="69.534" height="62.848" viewBox="0 0 69.534 62.848">
  <path id="Path_1294" data-name="Path 1294" d="M69.534,7.832c-.875,1.314-1.759,2.623-2.619,3.948a2.448,2.448,0,0,1-2.222,1.18c-1.988-.013-3.976,0-6.026,0V15.07H54.354V12.993H28.224V15.07H23.935V13.016H12.974v.791q0,23.416,0,46.83c0,.181,0,.361,0,.542-.011,1.168-.491,1.658-1.643,1.666-1.042.007-2.083,0-3.125,0-1.209,0-1.694-.482-1.694-1.682q0-6.575,0-13.149V12.954c-.583,0-1.119-.017-1.651,0a2.468,2.468,0,0,1-2.323-1.243C1.843,10.629,1.114,9.567.391,8.5c-.3-.447-.564-.9-.245-1.437A1.312,1.312,0,0,1,1.438,6.5c1.653.011,3.3,0,5.072,0A11.349,11.349,0,0,1,6.529,4.75a5.293,5.293,0,0,1,.553-1.763A25.41,25.41,0,0,1,8.714.656,1.133,1.133,0,0,1,10.756.63c.59.8,1.2,1.589,1.711,2.441a4.319,4.319,0,0,1,.489,1.58A13.671,13.671,0,0,1,12.974,6.5h.969q26.969,0,53.937-.013a1.685,1.685,0,0,1,1.654.8Zm-59.8.551A1.4,1.4,0,0,0,8.4,9.735,1.4,1.4,0,0,0,9.75,11.074a1.4,1.4,0,0,0,1.34-1.351A1.4,1.4,0,0,0,9.737,8.384Z" transform="translate(0 0)" fill="#fff"/>
  <path id="Path_1295" data-name="Path 1295" d="M36.862,12.976H56.019a4.366,4.366,0,0,1,4.755,4.709q0,14.841,0,29.684a4.35,4.35,0,0,1-4.6,4.591q-19.224,0-38.449,0A4.363,4.363,0,0,1,13,47.216Q13,32.408,13,17.6a4.348,4.348,0,0,1,4.637-4.623Q27.251,12.973,36.862,12.976Zm-.049,34.705H54.879c1.295,0,1.6-.3,1.6-1.589V18.785c0-1.195-.332-1.529-1.527-1.529H18.823c-1.2,0-1.535.331-1.535,1.522V46.154c0,1.195.333,1.529,1.525,1.529Z" transform="translate(4.384 4.375)" fill="#fff"/>
  <path id="Path_1296" data-name="Path 1296" d="M35.8,41.866V35.013c0-1.824,0-1.824-1.823-1.822h-1.7c-.875,0-.884.007-.884.86q0,3.491,0,6.98v.793c-.231.017-.425.043-.62.043q-2.988.006-5.977,0a1.844,1.844,0,0,1-2.035-2.009c-.019-2.191-.013-4.382.006-6.572a.93.93,0,0,1,.268-.628c3.434-3.01,6.884-6,10.376-9.042.714.6,1.422,1.183,2.127,1.776q4.207,3.536,8.416,7.066a1.177,1.177,0,0,1,.5,1.019c-.026,2.054-.007,4.111-.013,6.167,0,1.559-.676,2.226-2.23,2.226C40.105,41.866,38,41.866,35.8,41.866Z" transform="translate(7.672 7.963)" fill="#fff"/>
  <path id="Path_1297" data-name="Path 1297" d="M41.245,23.057c0-.778-.007-1.363,0-1.95.011-.8.305-1.084,1.119-1.094.7-.007,1.4-.011,2.1,0,.757.013,1.059.314,1.062,1.082.009,1.694-.017,3.387.021,5.079a1.289,1.289,0,0,0,.4.843c1.1.976,2.239,1.9,3.359,2.853.729.617.746.875.129,1.624-.243.3-.491.591-.738.884-.614.731-.982.772-1.7.166q-3.117-2.616-6.228-5.238c-2.074-1.744-4.15-3.488-6.279-5.275-.238.2-.461.378-.676.566L22.563,32.4c-.914.8-1.225.772-1.99-.151-.216-.262-.433-.522-.648-.783-.588-.718-.57-.976.133-1.57q3.76-3.169,7.523-6.333Q30.616,21,33.653,18.452c.976-.819,1.113-.817,2.067-.015q2.31,1.943,4.619,3.884C40.593,22.537,40.854,22.741,41.245,23.057Z" transform="translate(6.577 6.015)" fill="#fff"/>
</svg>
