<svg xmlns="http://www.w3.org/2000/svg" width="29.067" height="29.067" viewBox="0 0 29.067 29.067">
  <g id="Group_40435" data-name="Group 40435" transform="translate(-1349.434 -503.567)">
    <path id="Path_961" data-name="Path 961" d="M177.112,14.533A14.533,14.533,0,1,1,162.578,0a14.533,14.533,0,0,1,14.533,14.533" transform="translate(1201.389 503.567)" fill="#3cf"/>
    <path id="Path_962" data-name="Path 962" d="M172.081,11.289a6.549,6.549,0,0,1-1.6.457c.258-.043.636-.509.788-.7a2.949,2.949,0,0,0,.532-.97c.014-.028.024-.062,0-.084a.091.091,0,0,0-.085.007,8.194,8.194,0,0,1-1.9.727.127.127,0,0,1-.131-.035,1.486,1.486,0,0,0-.166-.17,3.373,3.373,0,0,0-.921-.564,3.193,3.193,0,0,0-1.412-.228,3.381,3.381,0,0,0-1.339.378,3.449,3.449,0,0,0-1.081.883,3.314,3.314,0,0,0-.645,1.292,3.485,3.485,0,0,0-.034,1.365c.011.076,0,.087-.066.076a10.152,10.152,0,0,1-6.53-3.324c-.076-.087-.117-.087-.18.007a3.311,3.311,0,0,0,.564,3.913c.128.122.26.242.4.353a3.338,3.338,0,0,1-1.26-.353c-.076-.048-.114-.021-.121.066a1.953,1.953,0,0,0,.021.375,3.348,3.348,0,0,0,2.064,2.669,1.9,1.9,0,0,0,.419.128,3.762,3.762,0,0,1-1.236.039c-.09-.017-.124.027-.09.114a3.477,3.477,0,0,0,2.6,2.175c.117.021.235.021.353.048-.007.011-.014.011-.021.021a4.114,4.114,0,0,1-1.774.94,6.363,6.363,0,0,1-2.694.345c-.145-.021-.175-.02-.214,0s0,.059.042.1c.183.122.371.229.56.333a8.9,8.9,0,0,0,1.8.72,9.59,9.59,0,0,0,9.31-2.177,9.77,9.77,0,0,0,2.576-7.127c0-.1.122-.159.193-.213a6.28,6.28,0,0,0,1.267-1.318.4.4,0,0,0,.084-.252v-.014c0-.042,0-.03-.065,0" transform="translate(1199.916 501.832)" fill="#fff"/>
  </g>
</svg>
