<svg xmlns="http://www.w3.org/2000/svg" width="29.067" height="29.067" viewBox="0 0 29.067 29.067">
  <g id="Group_40438" data-name="Group 40438" transform="translate(-990.813 -535.034)">
    <path id="Path_1288" data-name="Path 1288" d="M29.067,14.533A14.533,14.533,0,1,1,14.533,0,14.533,14.533,0,0,1,29.067,14.533" transform="translate(990.813 535.034)" fill="#00d95f"/>
    <path id="Path_1289" data-name="Path 1289" d="M8.132,24.03l1.212-4.521a8.368,8.368,0,1,1,3.333,3.3ZM12.9,21.118l.286.171a6.8,6.8,0,1,0-2.323-2.3l.175.288L10.364,21.8Z" transform="translate(989.361 533.762)" fill="#fff"/>
    <path id="Path_1290" data-name="Path 1290" d="M20.723,17.622a1.405,1.405,0,0,0-1.2-.269c-.311.127-.509.614-.71.862a.3.3,0,0,1-.385.083,5.41,5.41,0,0,1-2.7-2.314.332.332,0,0,1,.041-.453,1.829,1.829,0,0,0,.491-.8,1.748,1.748,0,0,0-.219-.944,2.23,2.23,0,0,0-.7-1.049.954.954,0,0,0-1.036.154,2.1,2.1,0,0,0-.73,1.667,2.338,2.338,0,0,0,.066.529,4.382,4.382,0,0,0,.507,1.169,9.2,9.2,0,0,0,.53.806,8.161,8.161,0,0,0,2.3,2.133,6.944,6.944,0,0,0,1.433.682,3.182,3.182,0,0,0,1.668.263,2.015,2.015,0,0,0,1.512-1.125.975.975,0,0,0,.071-.574c-.086-.4-.622-.63-.941-.822" transform="translate(988.389 532.777)" fill="#fff" fill-rule="evenodd"/>
  </g>
</svg>
