<svg xmlns="http://www.w3.org/2000/svg" width="40.659" height="35.513" viewBox="0 0 40.659 35.513">
  <path id="wishlist" d="M21.725,30.059l3.472,3.28Zm-.834,1.906a1.013,1.013,0,1,1,0,2.026H2.377a2.347,2.347,0,0,1-1.655-.7h0A2.35,2.35,0,0,1,.03,31.641V2.357A2.337,2.337,0,0,1,.725.7h0A2.35,2.35,0,0,1,2.377,0h27.97A2.35,2.35,0,0,1,32,.692l.069.076a2.37,2.37,0,0,1,.622,1.589V16.218a1.013,1.013,0,1,1-2.026,0V2.357a.331.331,0,0,0-.073-.205l-.026-.026a.331.331,0,0,0-.232-.1H2.377a.331.331,0,0,0-.232.1h0a.331.331,0,0,0-.1.232V31.634a.331.331,0,0,0,.1.232h0a.331.331,0,0,0,.232.1Zm10.717-9.651c1.172-1.225,1.986-2.28,3.806-2.489,3.389-.387,6.5,3.085,4.789,6.5a15.208,15.208,0,0,1-2.575,3.267c-1.2,1.248-2.525,2.469-3.472,3.4l-2.545,2.525-2.1-2.026c-2.532-2.436-6.649-5.507-6.8-9.307a4.178,4.178,0,0,1,4.425-4.339C29.294,19.871,30.208,20.944,31.608,22.314Zm-23.717,0a1.192,1.192,0,1,1,0-.013Zm4.869,2.406a1.043,1.043,0,0,1,0-2.049h3.905a1.043,1.043,0,0,1,0,2.049Zm-4.869-9.5a1.2,1.2,0,1,1-1.2,1.195,1.2,1.2,0,0,1,1.2-1.195Zm4.869,2.3a1.026,1.026,0,0,1,0-2.022h7.973a1.026,1.026,0,0,1,0,2.022ZM7.891,8.142a1.2,1.2,0,1,1-1.2,1.2,1.2,1.2,0,0,1,1.2-1.2Zm4.869,2.2a.94.94,0,0,1-.851-1.009.943.943,0,0,1,.851-1.013H23.976a.943.943,0,0,1,.867,1.013.94.94,0,0,1-.851,1.009Z" transform="translate(-0.03)" fill="#fff"/>
</svg>
